<svg width="114" height="114" viewBox="0 0 114 114" fill="none" xmlns="http://www.w3.org/2000/svg">
<path d="M21.0258 96.9036L13.0244 7.125H100.975L92.9634 96.8893L56.9465 106.875L21.0258 96.9036Z" fill="#1572B6"/>
<path d="M57 99.2446L86.1056 91.1755L92.9527 14.4678H57V99.2446Z" fill="#33A9DC"/>
<path d="M57 46.9931H71.5706L72.5752 35.7177H57V24.7061H84.6094L84.3458 27.6594L81.6418 58.0047H57V46.9931V46.9931Z" fill="white"/>
<path d="M57.0677 75.5892L57.0178 75.6035L44.7557 72.2904L43.9719 63.5088H32.9175L34.46 80.7976L57.0142 87.0605L57.0677 87.0462V75.5892V75.5892Z" fill="#EBEBEB"/>
<path d="M70.6338 57.5381L69.3085 72.2833L57.0286 75.5964V87.0534L79.6006 80.7977L79.768 78.938L81.6811 57.5381H70.6338V57.5381Z" fill="white"/>
<path d="M57.0393 24.7061V35.7177H30.4416L30.2208 33.2418L29.7185 27.6594L29.4548 24.7061H57.0393V24.7061Z" fill="#EBEBEB"/>
<path d="M56.9999 46.9932V58.0048H44.891L44.6701 55.5289L44.1713 49.9465L43.9077 46.9932H56.9999V46.9932Z" fill="#EBEBEB"/>
</svg>
