<svg width="112" height="90" viewBox="0 0 112 90" fill="none" xmlns="http://www.w3.org/2000/svg">
<path d="M63.5 55C63.5 50.8579 60.1421 47.5 56 47.5C51.8579 47.5 48.5 50.8579 48.5 55L63.5 55ZM50.6967 61.3119C53.6256 64.2408 58.3744 64.2408 61.3033 61.3119L109.033 13.5822C111.962 10.6532 111.962 5.90448 109.033 2.97555C106.104 0.0466178 101.355 0.0466183 98.4264 2.97555L56 45.402L13.5736 2.97556C10.6447 0.0466282 5.89592 0.0466287 2.96699 2.97556C0.0380537 5.90449 0.0380542 10.6532 2.96699 13.5822L50.6967 61.3119ZM48.5 55L48.5 56.0086L63.5 56.0086L63.5 55L48.5 55Z" fill="#03989E"/>
<path d="M63.5 81.2227C63.5 77.0805 60.1421 73.7227 56 73.7227C51.8579 73.7227 48.5 77.0805 48.5 81.2227L63.5 81.2227ZM50.6967 87.5345C53.6256 90.4635 58.3744 90.4635 61.3033 87.5345L109.033 39.8048C111.962 36.8759 111.962 32.1271 109.033 29.1982C106.104 26.2693 101.355 26.2693 98.4264 29.1982L56 71.6246L13.5736 29.1982C10.6447 26.2693 5.89592 26.2693 2.96699 29.1982C0.0380536 32.1272 0.0380542 36.8759 2.96699 39.8048L50.6967 87.5345ZM48.5 81.2227L48.5 82.2312L63.5 82.2312L63.5 81.2227L48.5 81.2227Z" fill="#03989E"/>
</svg>
