<svg width="114" height="114" viewBox="0 0 114 114" fill="none" xmlns="http://www.w3.org/2000/svg">
<path d="M76 76C86.4934 76 95 67.4934 95 57C95 46.5066 86.4934 38 76 38C65.5066 38 57 46.5066 57 57C57 67.4934 65.5066 76 76 76Z" fill="#19BCFE"/>
<path fill-rule="evenodd" clip-rule="evenodd" d="M38 114C43.0391 114 47.8718 111.998 51.435 108.435C54.9982 104.872 57 100.039 57 95V76H38C32.9609 76 28.1282 78.0018 24.565 81.565C21.0018 85.1282 19 89.9609 19 95C19 100.039 21.0018 104.872 24.565 108.435C28.1282 111.998 32.9609 114 38 114V114Z" fill="#09CF83"/>
<path fill-rule="evenodd" clip-rule="evenodd" d="M38 76H57V38H38C32.9609 38 28.1282 40.0018 24.565 43.565C21.0018 47.1282 19 51.9609 19 57C19 62.0391 21.0018 66.8718 24.565 70.435C28.1282 73.9982 32.9609 76 38 76V76Z" fill="#A259FF"/>
<path fill-rule="evenodd" clip-rule="evenodd" d="M38 38H57V0H38C32.9609 0 28.1282 2.00178 24.565 5.56497C21.0018 9.12816 19 13.9609 19 19C19 24.0391 21.0018 28.8718 24.565 32.435C28.1282 35.9982 32.9609 38 38 38V38Z" fill="#F24E1E"/>
<path fill-rule="evenodd" clip-rule="evenodd" d="M76 38H57V0H76C81.0391 0 85.8718 2.00178 89.435 5.56497C92.9982 9.12816 95 13.9609 95 19C95 24.0391 92.9982 28.8718 89.435 32.435C85.8718 35.9982 81.0391 38 76 38Z" fill="#FF7262"/>
</svg>
