<svg width="114" height="114" viewBox="0 0 114 114" fill="none" xmlns="http://www.w3.org/2000/svg">
<g clip-path="url(#clip0_262_1040)">
<path d="M111.848 51.9199L62.0729 2.15173C61.3914 1.46988 60.5822 0.928986 59.6916 0.559953C58.801 0.190919 57.8464 0.000976563 56.8824 0.000976562C55.9183 0.000976563 54.9637 0.190919 54.0731 0.559953C53.1825 0.928986 52.3733 1.46988 51.6918 2.15173L41.3606 12.483L54.4706 25.593C56.0167 25.0651 57.6801 24.9825 59.271 25.3546C60.8618 25.7268 62.316 26.5387 63.4675 27.6977C64.6191 28.8566 65.4216 30.316 65.7835 31.9092C66.1454 33.5024 66.0521 35.1653 65.5143 36.708L78.1469 49.3477C80.0159 48.6897 82.0533 48.6877 83.9235 49.3421C85.7938 49.9965 87.3854 51.2682 88.4364 52.948C89.4874 54.6277 89.935 56.6153 89.7056 58.5834C89.4762 60.5515 88.5834 62.3829 87.1743 63.7759C85.7478 65.2111 83.8672 66.1066 81.8537 66.3093C79.8403 66.5121 77.8189 66.0094 76.1349 64.8873C74.4509 63.7652 73.2087 62.0932 72.6205 60.157C72.0324 58.2207 72.1347 56.1403 72.9101 54.2711L61.1324 42.4864V73.5015C62.9226 74.3876 64.3551 75.8606 65.1909 77.6748C66.0268 79.489 66.2157 81.5349 65.726 83.4715C65.2363 85.4081 64.0977 87.1183 62.4999 88.3172C60.9021 89.5161 58.9417 90.1311 56.9455 90.0598C54.9492 89.9885 53.0377 89.2352 51.5295 87.9254C50.0214 86.6156 49.0076 84.8285 48.6574 82.8619C48.3071 80.8954 48.6414 78.8681 49.6045 77.1181C50.5677 75.3682 52.1016 74.0012 53.9504 73.245V41.9449C52.8837 41.5078 51.9141 40.8639 51.0974 40.0503C50.2808 39.2367 49.6332 38.2695 49.1921 37.2045C48.751 36.1394 48.525 34.9976 48.5273 33.8449C48.5295 32.6921 48.7599 31.5512 49.2052 30.4879L36.2876 17.5631L2.15881 51.6919C1.47696 52.3734 0.936066 53.1825 0.567033 54.0732C0.197999 54.9638 0.00805664 55.9184 0.00805664 56.8824C0.00805664 57.8465 0.197999 58.8011 0.567033 59.6917C0.936066 60.5823 1.47696 61.3915 2.15881 62.073L51.9341 111.848C52.6156 112.53 53.4247 113.071 54.3154 113.44C55.206 113.809 56.1606 113.999 57.1246 113.999C58.0887 113.999 59.0433 113.809 59.9339 113.44C60.8245 113.071 61.6337 112.53 62.3152 111.848L111.855 62.3081C113.231 60.9308 114.003 59.064 114.003 57.1175C114.003 55.1711 113.231 53.3043 111.855 51.927" fill="#F24E1E"/>
</g>
<defs>
<clipPath id="clip0_262_1040">
<rect width="114" height="114" fill="white"/>
</clipPath>
</defs>
</svg>
