<svg width="114" height="114" viewBox="0 0 114 114" fill="none" xmlns="http://www.w3.org/2000/svg">
<path fill-rule="evenodd" clip-rule="evenodd" d="M57 0C25.5075 0 0 25.5075 0 57C0 82.2225 16.3162 103.526 38.9737 111.079C41.8237 111.578 42.8925 109.868 42.8925 108.371C42.8925 107.018 42.8213 102.529 42.8213 97.755C28.5 100.391 24.795 94.2638 23.655 91.0575C23.0138 89.4188 20.235 84.36 17.8125 83.0063C15.8175 81.9375 12.9675 79.3013 17.7412 79.23C22.23 79.1588 25.4362 83.3625 26.505 85.0725C31.635 93.6937 39.8287 91.2712 43.1062 89.775C43.605 86.07 45.1013 83.5763 46.74 82.1513C34.0575 80.7263 20.805 75.81 20.805 54.0075C20.805 47.8087 23.0138 42.6788 26.6475 38.6888C26.0775 37.2638 24.0825 31.4213 27.2175 23.5838C27.2175 23.5838 31.9912 22.0875 42.8925 29.4263C47.4525 28.1438 52.2975 27.5025 57.1425 27.5025C61.9875 27.5025 66.8325 28.1438 71.3925 29.4263C82.2937 22.0163 87.0675 23.5838 87.0675 23.5838C90.2025 31.4213 88.2075 37.2638 87.6375 38.6888C91.2713 42.6788 93.48 47.7375 93.48 54.0075C93.48 75.8812 80.1562 80.7263 67.4737 82.1513C69.54 83.9325 71.3213 87.3525 71.3213 92.6962C71.3213 100.32 71.25 106.448 71.25 108.371C71.25 109.868 72.3187 111.649 75.1687 111.079C86.4841 107.258 96.3166 99.986 103.282 90.285C110.248 80.584 113.997 68.9429 114 57C114 25.5075 88.4925 0 57 0Z" fill="#020202"/>
</svg>
