<svg width="77" height="57" viewBox="0 0 77 57" fill="none" xmlns="http://www.w3.org/2000/svg">
<g clip-path="url(#clip0_266_51)">
<path d="M17.5001 56.0486V27.294L8.27359 19.1357L0 14.6084V50.9742C0 53.7819 2.35361 56.0486 5.25014 56.0486H17.5001Z" fill="#4285F4"/>
<path d="M59.5 56.0483H71.7499C74.6552 56.0483 77.0001 53.7732 77.0001 50.9739V14.6084L67.6289 19.7939L59.5 27.2937V56.0483Z" fill="#34A853"/>
<path d="M17.5001 27.2942L16.2446 16.0589L17.5001 5.30566L38.5 20.5286L59.5 5.30566L60.9046 15.4783L59.5 27.2942L38.5 42.5171L17.5001 27.2942Z" fill="#EA4335"/>
<path d="M59.5 5.30538V27.2939L77.0001 14.6082V7.84244C77.0001 1.56737 69.5888 -2.00988 64.4003 1.75342L59.5 5.30538Z" fill="#FBBC04"/>
<path d="M0 14.6084L8.0486 20.443L17.5001 27.294V5.30551L12.5997 1.75356C7.40223 -2.01003 0 1.5675 0 7.84228V14.6081V14.6084Z" fill="#C5221F"/>
</g>
<defs>
<clipPath id="clip0_266_51">
<rect width="77" height="56.1079" fill="white" transform="translate(0 0.216797)"/>
</clipPath>
</defs>
</svg>
