<svg width="114" height="114" viewBox="0 0 114 114" fill="none" xmlns="http://www.w3.org/2000/svg">
<path d="M21.0259 96.9036L13.021 7.125H100.979L92.9635 96.8893L56.9466 106.875L21.0259 96.9036Z" fill="#E44F26"/>
<path d="M57 99.2446L86.1056 91.1755L92.9527 14.4678H57V99.2446Z" fill="#EB7D4D"/>
<path d="M57 47.7626H42.4294L41.4248 36.4873H57V25.4756H29.3906L29.6543 28.4325L32.3582 58.7743H57V47.7626V47.7626Z" fill="#EBEBEB"/>
<path d="M57 76.3591L56.9502 76.3733L44.688 73.0638L43.9043 64.2822H32.8499L34.3924 81.5675L56.9502 87.8303L57 87.8161V76.3591Z" fill="#EBEBEB"/>
<path d="M56.9609 47.7627V58.7744H70.5198L69.2444 73.0564L56.9609 76.3696V87.8266L79.5365 81.5673L79.7004 79.7076L82.2867 50.7196L82.5575 47.7627H56.9609V47.7627Z" fill="white"/>
<path d="M56.9609 25.4756V36.4873H83.5586L83.7794 34.0149L84.2817 28.4325L84.5454 25.4756H56.9609V25.4756Z" fill="white"/>
</svg>
