<svg width="114" height="114" viewBox="0 0 114 114" fill="none" xmlns="http://www.w3.org/2000/svg">
<path d="M0 0H114V114H0V0Z" fill="#F7DF1E"/>
<path d="M29.9748 95.2664L38.6985 89.9867C40.3818 92.9708 41.9127 95.4957 45.5852 95.4957C49.1054 95.4957 51.3253 94.1188 51.3253 88.7626V52.3369H62.0382V88.914C62.0382 100.01 55.534 105.061 46.0444 105.061C37.4743 105.061 32.4997 100.622 29.9744 95.2655" fill="#040404"/>
<path d="M67.8571 94.1188L76.5799 89.0685C78.8764 92.8185 81.8609 95.5732 87.1405 95.5732C91.5798 95.5732 94.4102 93.3538 94.4102 90.2927C94.4102 86.6197 91.5023 85.3185 86.6048 83.1766L83.9271 82.0277C76.1978 78.7382 71.071 74.6057 71.071 65.882C71.071 57.8468 77.1927 51.7246 86.7584 51.7246C93.569 51.7246 98.4666 54.0972 101.986 60.2955L93.6447 65.6526C91.8078 62.3622 89.8191 61.0615 86.758 61.0615C83.6203 61.0615 81.6307 63.0511 81.6307 65.6526C81.6307 68.8665 83.6203 70.1681 88.2115 72.1578L90.8896 73.3053C99.9962 77.2085 105.123 81.1874 105.123 90.1399C105.123 99.7827 97.5475 105.062 87.3698 105.062C77.422 105.062 70.9939 100.318 67.8567 94.1193" fill="#040404"/>
</svg>
