<svg width="27" height="31" viewBox="0 0 27 31" fill="none" xmlns="http://www.w3.org/2000/svg">
<path d="M3.79858 4.04785H23.1015V27.0644H3.79858V4.04785ZM8.87097 23.2794C9.29992 24.3663 10.1471 25.2614 11.5948 25.2614C13.2034 25.2614 14.308 24.2385 14.308 22.0007V14.6099H12.4849V21.9496C12.4849 23.0493 12.1096 23.3306 11.5198 23.3306C10.8978 23.3306 10.6404 22.8191 10.3509 22.2181L8.87097 23.2794ZM15.2838 23.0493C15.82 24.3024 16.9031 25.2614 18.5975 25.2614C20.3133 25.2614 21.6002 24.2001 21.6002 22.2437C21.6002 20.4407 20.7316 19.6352 19.1873 18.8424L18.7369 18.6122C17.9541 18.2158 17.6216 17.9473 17.6216 17.3079C17.6216 16.7837 17.9541 16.3745 18.4903 16.3745C19.005 16.3745 19.3482 16.643 19.6592 17.3079L21.064 16.1955C20.4742 14.9679 19.6377 14.4948 18.4903 14.4948C16.871 14.4948 15.8308 15.7224 15.8308 17.3463C15.8308 19.1109 16.6994 19.942 18.0077 20.607L18.4581 20.8371C19.2946 21.2719 19.7879 21.5404 19.7879 22.2821C19.7879 22.8958 19.3053 23.3434 18.5546 23.3434C17.6645 23.3434 17.1498 22.7935 16.7637 22.0263L15.2838 23.0493Z" fill="#F8F8F8"/>
</svg>
