<svg width="73" height="72" viewBox="0 0 73 72" fill="none" xmlns="http://www.w3.org/2000/svg">
<g clip-path="url(#clip0_266_46)">
<path d="M62.1992 60.7472H51.3829V44.3607C51.3829 40.4533 51.3108 35.4231 45.7574 35.4231C40.1238 35.4231 39.2618 39.6806 39.2618 44.0763V60.746H28.4458V27.0491H38.8292V31.6541H38.9746C40.0138 29.9353 41.5154 28.5213 43.3195 27.5627C45.1237 26.6042 47.1628 26.1369 49.2197 26.2107C60.1826 26.2107 62.2037 33.1865 62.2037 42.2615L62.1992 60.7472ZM16.2411 22.4431C12.7745 22.4437 9.96369 19.7255 9.96311 16.3719C9.96254 13.0184 12.7722 10.2993 16.2388 10.2988C19.7055 10.2979 22.5163 13.0162 22.5168 16.3697C22.5171 17.9801 21.8561 19.5247 20.6792 20.6637C19.5023 21.8027 17.9059 22.4428 16.2411 22.4431ZM21.6494 60.7474H10.8217V27.0491H21.6491V60.7472L21.6494 60.7474ZM67.5915 0.581312H5.38664C2.44668 0.549313 0.0356855 2.82758 -0.000244141 5.67161V66.0979C0.0345449 68.9433 2.44526 71.2237 5.38636 71.1939H67.5915C70.5389 71.2293 72.959 68.9488 72.9998 66.0979V5.66692C72.9578 2.81737 70.5374 0.539382 67.5915 0.576622" fill="#0A66C2"/>
</g>
<defs>
<clipPath id="clip0_266_46">
<rect width="73" height="70.6182" fill="white" transform="translate(0 0.576172)"/>
</clipPath>
</defs>
</svg>
