<svg width="78" height="78" viewBox="0 0 78 78" fill="none" xmlns="http://www.w3.org/2000/svg">
<g clip-path="url(#clip0_533_16)">
<path d="M15.353 8.14128C15.353 8.14128 15.093 8.55403 15.34 9.16503C15.4895 9.54203 15.9445 9.99703 16.445 10.478C16.445 10.478 21.6937 15.6 22.3372 16.341C25.246 19.6983 26.5102 23.0035 26.6272 27.5633C26.6987 30.4883 26.1365 33.0623 24.765 36.0555C22.308 41.4148 17.1275 47.3265 9.13249 53.898L10.3025 53.508C11.0597 52.9458 12.0835 52.3413 14.5015 51.0185C20.0687 47.9765 26.3185 45.175 33.9982 42.289C45.045 38.1388 63.2157 33.267 73.5572 31.6843L74.633 31.5185L74.4705 31.2585C73.5215 29.7895 72.878 28.8828 72.098 27.9208C69.8327 25.116 67.0865 22.828 63.7227 20.9463C59.1012 18.356 53.105 16.3443 45.5227 14.8363C43.156 14.3912 40.7821 13.9849 38.402 13.6175C34.1445 12.9646 29.8933 12.2712 25.649 11.5375C24.2677 11.2938 22.204 10.9493 20.8357 10.6535C19.7806 10.4293 18.738 10.1494 17.7125 9.81503C16.8415 9.47378 15.6162 9.14228 15.353 8.14128ZM18.395 11.0955C18.4047 11.089 18.5997 11.1508 18.8402 11.232C19.2822 11.3815 19.8672 11.557 20.5497 11.7488C21.0242 11.8788 21.5475 12.0218 22.1065 12.1615C22.815 12.3435 23.4032 12.4995 23.4097 12.5093C23.4877 12.597 24.6805 16.4028 25.0867 17.862C25.2427 18.421 25.3597 18.8858 25.35 18.8955C25.2367 18.7546 25.1387 18.6021 25.0575 18.4405C23.6795 16.016 21.4922 13.5493 18.967 11.5635C18.7707 11.4146 18.5799 11.2585 18.395 11.0955ZM24.2125 12.701C24.4263 12.7214 24.6382 12.7584 24.8462 12.8115C26.858 13.2535 30.4525 13.949 32.76 14.339C33.1467 14.404 33.462 14.469 33.462 14.4918C33.3678 14.5763 33.2602 14.6444 33.1435 14.6933C32.7567 14.8883 31.187 15.8275 30.6637 16.1785C29.4685 16.9635 28.348 17.8567 27.3162 18.8468C27.1082 19.0602 26.8947 19.2682 26.676 19.4708C26.6202 19.326 26.5756 19.1772 26.5427 19.0255C25.9909 17.046 25.2845 15.1128 24.4302 13.2438C24.3445 13.069 24.2674 12.89 24.1995 12.7075C24.1995 12.7043 24.1995 12.701 24.2125 12.701ZM34.4402 14.6445C34.5052 14.6673 34.6352 15.067 34.8595 15.9575C35.3775 18.0574 35.5455 20.2283 35.3567 22.3828L35.3177 22.5063L34.71 22.3113C33.0265 21.7839 31.3341 21.2855 29.6335 20.8163C29.019 20.659 28.4117 20.4747 27.8135 20.2638C27.8135 20.1923 29.2727 18.733 29.9 18.1773C31.0992 17.1178 34.3265 14.6088 34.4402 14.6445ZM35.2527 14.7615C35.2885 14.729 40.1407 15.5675 42.3442 15.99C43.9887 16.3053 46.3645 16.8025 46.5075 16.8643C46.579 16.8903 46.332 17.0268 45.5422 17.3843C42.4222 18.7883 40.1082 20.0493 37.8072 21.5865C37.2027 21.9895 36.699 22.321 36.6892 22.321C36.6762 22.321 36.6697 21.983 36.6697 21.5735C36.6697 19.331 36.218 17.0658 35.399 15.1515C35.3382 15.0264 35.2893 14.8958 35.2527 14.7615ZM47.7977 17.2445C47.8335 17.2803 47.6742 18.239 47.5377 18.8045C47.1087 20.5595 45.9712 23.1725 44.5672 25.6263C44.4198 25.9031 44.2548 26.1701 44.0732 26.4258C43.8261 26.321 43.588 26.196 43.3615 26.052C41.99 25.2493 40.4365 24.492 38.7302 23.7868C38.4249 23.6668 38.1235 23.5367 37.8267 23.3968C37.7487 23.3253 41.5415 20.813 43.5532 19.6073C45.162 18.642 47.7522 17.199 47.7977 17.2445ZM48.6947 17.3843C48.802 17.3843 50.9535 17.9693 52.065 18.304C54.8372 19.1328 58.0352 20.2995 60.1087 21.242L60.97 21.632L60.3622 21.7718C55.289 22.9418 50.9372 24.284 46.7512 25.9838C46.4035 26.1268 46.1012 26.2438 46.0785 26.2438C46.1375 26.035 46.2192 25.8334 46.3222 25.6425C47.5832 22.9678 48.3957 20.1598 48.607 17.7775C48.6265 17.5598 48.6655 17.3843 48.6947 17.3843ZM27.3097 22.2983C27.3422 22.2658 28.9802 22.6493 29.874 22.8995C31.2162 23.2765 34.073 24.232 34.073 24.3068C34.073 24.3198 33.7577 24.596 33.3742 24.9178C31.7147 26.3131 30.107 27.769 28.5545 29.2825C28.2333 29.6044 27.8993 29.9134 27.5535 30.2088C27.5307 30.2088 27.521 30.134 27.534 30.0463C27.8037 28.0605 27.7452 25.5125 27.3715 22.919C27.3346 22.7151 27.3129 22.5087 27.3065 22.3015L27.3097 22.2983ZM61.7922 22.3308C61.815 22.3568 61.0317 23.582 60.5442 24.2808C59.8292 25.3013 58.799 26.6403 56.446 29.601L53.3455 33.5075C53.0623 33.8749 52.7708 34.2357 52.4712 34.5898C52.4615 34.5898 52.3087 34.3753 52.1365 34.1153C50.808 32.1329 49.1988 30.3539 47.359 28.834C47.0708 28.5926 46.7782 28.3564 46.4815 28.1255C46.3938 28.0667 46.3131 27.998 46.241 27.9208C46.241 27.8883 48.2462 27.0303 49.777 26.4063C52.7426 25.2143 55.7545 24.1409 58.8055 23.1888C60.242 22.75 61.7695 22.3113 61.7922 22.3308ZM62.6957 22.568C62.9326 22.6481 63.1585 22.7573 63.3685 22.893C66.2341 24.5348 68.8847 26.526 71.2595 28.821C71.89 29.4385 73.4272 31.0408 73.4045 31.0538L72.2247 31.148C67.2522 31.5218 60.8952 32.578 54.7722 34.0503C54.3562 34.1478 53.9987 34.2323 53.9727 34.2323C53.95 34.2323 54.405 33.7773 54.9835 33.2183C58.5812 29.7635 60.2192 27.5828 62.1497 23.6828C62.4357 23.1043 62.6795 22.6005 62.6892 22.5713H62.6957V22.568ZM36.4097 25.2655C36.5755 25.298 38.1095 26.013 39.2665 26.5915C40.3227 27.1213 41.925 27.976 42.0062 28.0508C42.016 28.0605 41.4537 28.353 40.7517 28.704C38.6692 29.7381 36.6327 30.8626 34.6482 32.0743C34.0795 32.422 33.6082 32.7048 33.592 32.7048C33.5432 32.7048 33.5595 32.6625 33.878 32.084C34.9755 30.037 35.7827 27.8471 36.2765 25.5775C36.322 25.376 36.374 25.2525 36.4097 25.2623V25.2655ZM34.866 25.5385C34.8985 25.571 34.502 27.0335 34.2485 27.8135C33.5618 29.8657 32.6518 31.8361 31.5347 33.6895L31.2422 34.1673L30.5825 33.527C29.9405 32.8728 29.199 32.3243 28.3855 31.902C28.1841 31.8111 27.9925 31.7 27.8135 31.5705C27.8135 31.473 29.8285 29.6433 31.382 28.327C32.4967 27.3845 34.84 25.5093 34.866 25.5385ZM44.252 29.3995L44.8272 29.7733C46.15 30.6313 47.7132 31.785 48.906 32.7763C49.5755 33.3353 50.8722 34.4988 51.1387 34.7783L51.2817 34.931L50.3262 35.1975C45.4407 36.53 40.6153 38.0742 35.8637 39.8255C35.5207 39.957 35.1739 40.0784 34.8237 40.1895C34.7555 40.1895 34.6872 40.2513 35.906 39.13C39.026 36.2603 41.7787 33.098 43.836 30.0235L44.252 29.3995ZM41.7852 30.017C41.8145 30.0463 40.1862 32.3245 39.221 33.6115C38.064 35.1488 36.0035 37.7228 34.5865 39.3965C34.2247 39.8378 33.8497 40.268 33.462 40.6868C33.4295 40.6965 33.4132 40.5243 33.41 40.2545C33.41 38.8245 33.046 37.297 32.409 36.0035C32.1392 35.4575 32.0937 35.3275 32.149 35.2755C32.37 35.074 35.8117 33.111 37.9795 31.9508C39.4712 31.1513 41.7592 29.9878 41.7852 30.017ZM26.8677 33.6733C27.8122 34.1258 28.6983 34.6911 29.5067 35.3568C29.5327 35.373 29.224 35.6265 28.8242 35.9158C27.703 36.725 25.9967 38.0088 25.012 38.7953C23.972 39.624 23.9362 39.65 24.0532 39.468C24.8332 38.2753 25.2232 37.6025 25.6327 36.738C26 35.971 26.3607 35.061 26.6207 34.268C26.6744 34.0585 26.7587 33.8581 26.871 33.6733H26.8677ZM30.8425 36.7933C30.8977 36.7835 30.9725 36.8843 31.2942 37.362C31.967 38.3695 32.4837 39.7085 32.617 40.8005L32.643 41.0378L31.0277 41.6618C28.5466 42.6155 26.0909 43.6342 23.6632 44.7168C23.1595 44.9508 22.2722 45.3733 21.6905 45.6658C21.1087 45.9583 20.6342 46.1858 20.6342 46.1728C20.6342 46.1598 20.9982 45.8835 21.4467 45.5618C24.9795 42.9943 28.028 40.1863 30.3257 37.375C30.5695 37.076 30.7937 36.816 30.823 36.7965C30.829 36.7931 30.8356 36.7909 30.8425 36.79V36.7933ZM29.0095 37.2483C29.0582 37.2938 27.7062 38.8213 26.7962 39.7508C24.5978 42.0098 22.1362 43.9967 19.4642 45.669C19.1132 45.8933 18.7947 46.0915 18.7492 46.1175C18.6745 46.163 18.7752 46.046 20.0037 44.707C20.7772 43.8653 21.3687 43.1665 22.0447 42.2923C22.3564 41.8413 22.7567 41.4587 23.2212 41.1678C24.9665 39.9068 28.964 37.1995 29.0095 37.245V37.2483ZM32.2562 2.71894e-05C31.9962 -0.0324728 27.8005 1.47878 25.1062 2.57078C21.4565 4.05603 18.6192 5.47628 16.8707 6.70478C16.2207 7.15978 15.4017 7.98203 15.2847 8.29728C15.2386 8.42547 15.2155 8.5608 15.2165 8.69703L16.8025 10.192L20.566 11.3945L29.5327 13L39.78 14.7615L39.884 13.884L39.793 13.8678L38.4442 13.6533L38.168 13.1723C36.7751 10.7149 35.4986 8.19339 34.3427 5.61603C33.6682 4.06705 33.0929 2.47676 32.6202 0.854777C32.3992 0.0650272 32.3765 0.0162772 32.2562 2.71894e-05ZM32.058 0.604527H32.0742C32.084 0.614277 32.1295 0.945777 32.1782 1.33578C32.3797 2.98678 32.7502 4.58578 33.3287 6.30828C33.7642 7.60828 33.7707 7.53353 33.2507 7.38728C32.0482 7.05253 26.6467 6.12628 22.7402 5.58353C22.3524 5.53405 21.9655 5.47662 21.58 5.41128C21.5312 5.36253 24.3977 3.86103 25.6685 3.26628C27.2967 2.51228 31.7362 0.666277 32.058 0.604527ZM20.6765 5.89553L21.1347 6.05153C23.6437 6.90303 29.9292 8.10553 33.4035 8.39153C33.7935 8.42403 34.125 8.45978 34.1347 8.46953C34.1445 8.47928 33.8097 8.65803 33.3937 8.86603C31.72 9.70453 29.874 10.7283 28.5967 11.5278C28.223 11.7618 27.8817 11.9503 27.833 11.947C27.6483 11.921 27.4641 11.8918 27.2805 11.8593L26.8125 11.7845L25.6262 10.6308C23.543 8.61578 21.918 7.05578 21.2875 6.47078L20.6765 5.89553ZM20.2117 6.26603L21.8725 8.33953C22.789 9.47703 23.7055 10.6113 23.907 10.855C24.1117 11.0988 24.2677 11.3035 24.258 11.31C24.2125 11.3458 21.853 10.8875 20.6017 10.5983C19.7212 10.4111 18.8502 10.1812 17.992 9.90928L17.342 9.70128L17.3452 9.54203C17.355 8.74578 18.3592 7.56928 20.0622 6.37003L20.2117 6.26603ZM34.3557 9.09028C34.4045 9.09353 34.4597 9.19428 34.606 9.51603C35.009 10.4 36.2635 12.792 36.5657 13.2535C36.6632 13.4063 36.8257 13.416 35.1585 13.1463C31.161 12.5028 29.8642 12.285 29.8642 12.259C29.9456 12.1884 30.0364 12.1293 30.134 12.0835C31.4092 11.368 32.6138 10.5333 33.7317 9.59078L34.3005 9.11303C34.32 9.09678 34.3395 9.08703 34.3557 9.09028ZM48.36 36.4163L32.734 41.5123L19.149 47.5118L15.3465 48.5193C13.3316 50.4243 11.2413 52.248 9.08049 53.9858C7.9579 54.9144 6.92128 55.9423 5.98324 57.057C4.90424 58.4025 4.05924 59.8325 3.69524 60.9343C3.04524 62.9168 3.36049 64.9253 4.62149 66.7778C6.23024 69.1438 9.43149 71.5488 13.1527 73.1868C15.054 74.0188 18.2552 75.0978 20.6602 75.7023C24.6675 76.7163 32.4057 77.8148 36.6697 77.9773C37.5342 78.0098 38.6847 78.0098 38.74 77.9708C38.831 77.909 39.4972 76.6545 40.2675 75.0783C42.887 69.7288 44.7817 64.7108 45.8022 60.4273C46.4197 57.8305 46.9007 54.3725 47.2127 50.271C47.3087 48.1772 47.3261 46.0806 47.2647 43.9855C47.1837 42.1267 46.9851 40.2748 46.67 38.441C46.6288 38.282 46.6156 38.1171 46.631 37.9535C46.6765 37.921 46.8227 37.8723 48.7435 37.3133L48.36 36.4163ZM44.785 38.5125C44.9312 38.5125 45.305 42.133 45.4057 44.4275C45.4252 44.9183 45.422 45.2303 45.3927 45.2303C45.3017 45.2303 43.394 44.109 42.0387 43.2608C40.7598 42.4551 39.5006 41.6186 38.2622 40.7518C38.1485 40.6608 38.1615 40.6575 39.1267 40.326C40.768 39.7605 44.6647 38.5125 44.7882 38.5125H44.785ZM36.829 41.1223C36.9265 41.1223 37.2027 41.275 37.8527 41.6813C40.2902 43.2088 43.5922 45.045 45.0027 45.6625C45.4447 45.8575 45.4935 45.7795 44.4827 46.4653C42.3312 47.9278 39.6532 49.3643 36.3675 50.8268C36.0126 50.9891 35.6539 51.143 35.2917 51.2883C35.3157 51.0674 35.3626 50.8495 35.4315 50.6383C36.2277 47.697 36.6762 44.7233 36.6892 42.3378C36.6957 41.1613 36.6957 41.1548 36.8095 41.1255H36.829V41.1223ZM35.191 41.7495C35.2592 41.821 35.2105 44.46 35.126 45.1815C34.8785 47.2128 34.4233 49.2134 33.7675 51.1518C33.722 51.207 32.1067 49.6308 31.5705 49.0068C30.7214 48.0438 29.9914 46.9821 29.3962 45.8445C29.1297 45.318 28.7007 44.2715 28.7397 44.2423C28.9217 44.1123 35.1455 41.7073 35.191 41.7495ZM27.4722 44.7915C27.4852 44.7915 27.4982 44.7948 27.5047 44.8045C27.5768 44.9413 27.6377 45.0837 27.6867 45.2303C28.1881 46.4782 28.8455 47.6576 29.6432 48.7403C30.6057 50.0146 31.7151 51.1709 32.9485 52.1853C33.0232 52.2503 33.046 52.2373 31.122 52.9653C28.6589 53.894 26.173 54.761 23.6665 55.5653C22.6037 55.9098 21.7035 56.199 21.6677 56.2153C21.5605 56.251 21.593 56.186 21.905 55.7018C23.2927 53.5373 25.3922 49.2993 26.5687 46.3028C26.7702 45.7828 26.9652 45.2628 27.001 45.1458C27.0497 44.9768 27.1017 44.9183 27.261 44.8468C27.3263 44.8125 27.3985 44.7936 27.4722 44.7915ZM25.1062 45.7665C25.1387 45.7958 24.5407 47.06 23.9492 48.2073C22.6954 50.6323 21.3367 53.0016 19.877 55.3085L19.2855 56.2445C19.227 56.3323 19.201 56.303 19.019 55.939C18.5941 55.0719 18.288 54.1514 18.109 53.2025C17.9419 52.0334 17.9638 50.845 18.174 49.6828C18.3267 48.945 18.3202 48.9613 18.668 48.7858C20.1695 48.0155 25.0575 45.7243 25.1062 45.7665ZM45.4772 46.5953V47.0958C45.4438 50.3532 45.1667 53.6036 44.6485 56.8198C42.5054 56.2013 40.4368 55.349 38.48 54.2783C37.3295 53.6478 35.6687 52.6305 35.7175 52.5818C35.7272 52.5688 36.218 52.312 36.803 52.0065C39.1235 50.804 41.3367 49.504 43.264 48.217C43.9855 47.736 45.0677 46.9528 45.3082 46.7415L45.4772 46.5953ZM16.1882 50.0825C16.237 50.0825 16.224 50.1735 16.1492 50.6058C16.0848 51.0259 16.0403 51.4489 16.016 51.8733C15.9185 53.6023 16.2012 54.8763 17.056 56.6183C17.2965 57.1058 17.485 57.5088 17.4752 57.5153C17.3875 57.59 9.57774 59.8748 7.12074 60.5475L5.70699 60.9375C5.61924 60.9635 5.61274 60.944 5.64199 60.7425C5.91174 59.0103 7.23449 56.7385 9.08049 54.8275C10.309 53.56 11.2905 52.806 12.9642 51.8538C14.028 51.2436 15.1028 50.6531 16.1882 50.0825ZM34.6125 53.3813C34.619 53.3748 34.9082 53.5275 35.2527 53.729C37.778 55.1883 41.2977 56.5565 44.2975 57.2423L44.5705 57.3073L44.1967 57.512C42.6302 58.383 37.466 60.5313 32.1912 62.5073C31.6347 62.7152 31.0789 62.9254 30.524 63.1378C30.4396 63.1792 30.3499 63.2087 30.2575 63.2255C30.2575 63.2125 30.4752 62.7965 30.7417 62.296C32.2237 59.527 33.6992 56.1633 34.4597 53.8298C34.5345 53.5925 34.6027 53.391 34.6125 53.3813ZM32.734 53.9988C32.6777 54.1861 32.6093 54.3696 32.5292 54.548C31.3303 57.3796 29.9618 60.1362 28.431 62.803C28.1711 63.2796 27.898 63.7489 27.612 64.2103C27.5957 64.2103 27.2415 63.9958 26.819 63.739C24.3165 62.205 22.1 60.32 20.644 58.4838L20.436 58.2238L21.515 57.928C25.0519 56.9819 28.5166 55.7839 31.8825 54.3433C32.344 54.1483 32.7275 53.989 32.734 53.9988ZM44.4015 58.071C44.4047 58.071 44.408 58.0743 44.408 58.0808C44.408 58.3408 43.8132 60.7718 43.316 62.5333C42.9 64.0055 42.549 65.1593 41.9022 67.2035C41.7373 67.7551 41.5552 68.3013 41.3562 68.8415C38.0202 68.2713 34.7526 67.3552 31.6062 66.1083C30.9009 65.8322 30.208 65.5254 29.5295 65.1885C29.51 65.1658 30.2217 64.831 31.109 64.441C36.4877 62.0978 42.0582 59.4263 43.9627 58.279C44.0958 58.1847 44.2443 58.1144 44.4015 58.071ZM17.4687 58.9908C17.498 59.02 15.9932 61.1715 13.8937 64.1128L11.986 66.7875C11.6707 67.2393 11.1897 67.951 10.9167 68.3735L10.4195 69.1405L9.89299 68.6953C9.10475 68.0036 8.36929 67.254 7.69274 66.4528C6.67874 65.1885 5.99299 63.8593 5.71999 62.6373C5.59649 62.0718 5.58999 61.7858 5.71024 61.75C7.80261 61.2453 9.89781 60.7524 11.9957 60.2713L16.2207 59.28C16.9 59.1175 17.4622 58.9875 17.4687 58.9908ZM18.98 59.5693L19.3602 59.995C20.9484 61.7981 22.8214 63.3286 24.9047 64.5255C25.1319 64.6383 25.3447 64.778 25.5385 64.9415C20.8612 66.6372 16.1702 68.2948 11.466 69.914C11.3854 69.866 11.3073 69.8139 11.232 69.758L11.0142 69.602L11.3555 69.108C12.4605 67.5058 13.8515 65.7443 16.8967 62.0815L18.98 59.5693ZM28.405 66.3065C28.4147 66.2968 28.9412 66.482 29.5815 66.7225C31.1187 67.2978 32.3245 67.6715 33.9592 68.081C35.9645 68.5848 38.8667 69.0885 40.5827 69.2315C40.8427 69.251 40.9792 69.2835 40.9402 69.3095C40.859 69.3615 39.1202 69.94 37.843 70.343C32.8346 71.8665 27.812 73.3432 22.776 74.7728C22.6622 74.7955 22.2657 74.6915 22.2657 74.6428C22.2657 74.6135 22.5485 74.256 22.893 73.8433C24.6115 71.7855 26.213 69.6327 27.69 67.3953C27.927 67.0315 28.1654 66.6686 28.405 66.3065ZM26.3185 66.365C26.3347 66.3813 25.4962 67.7235 24.024 70.044C23.4 71.0223 22.6947 72.1403 22.4542 72.5205C22.2105 72.904 21.8562 73.489 21.6677 73.8205L21.32 74.4218L21.1445 74.3763C20.722 74.2625 17.7352 73.2063 16.9487 72.8943C16.0099 72.5232 15.0921 72.1011 14.1992 71.63C13.26 71.123 12.0705 70.369 12.1615 70.3398L15.7527 69.3583C20.9267 67.9478 23.79 67.1385 25.6652 66.5503C26.0195 66.443 26.312 66.3585 26.3152 66.365H26.3185ZM41.0182 69.8133H41.0377C41.0865 69.9368 39.169 75.2408 38.4702 76.9243C38.311 77.3013 38.2557 77.3955 38.1712 77.389C36.6161 77.1926 35.0635 76.9759 33.514 76.739C30.5695 76.2905 25.6392 75.4293 24.3945 75.1465L24.1052 75.0815L25.87 74.685C29.653 73.8335 31.4697 73.3753 33.3125 72.8098C35.6878 72.0788 38.0095 71.184 40.261 70.1318C40.5074 70.0118 40.7602 69.9055 41.0182 69.8133Z" fill="#6B0808"/>
</g>
<defs>
<clipPath id="clip0_533_16">
<rect width="78" height="78" fill="white"/>
</clipPath>
</defs>
</svg>
