<svg width="79" height="78" viewBox="0 0 79 78" fill="none" xmlns="http://www.w3.org/2000/svg">
<path d="M72.7193 60.1132C68.4243 60.0058 65.0955 60.4367 62.3036 61.6212C61.4982 61.944 60.2095 61.9444 60.1021 62.9676C60.5317 63.3985 60.5854 64.0986 60.9613 64.6908C61.6062 65.7676 62.7329 67.2217 63.7531 67.9761C64.8804 68.8375 66.0083 69.6989 67.189 70.4529C69.2831 71.7454 71.6457 72.4991 73.6858 73.7917C74.8674 74.5451 76.0478 75.5151 77.2291 76.3227C77.8197 76.7529 78.1953 77.4537 78.9473 77.7226V77.5614C78.5712 77.0764 78.4638 76.3765 78.0882 75.838C77.5519 75.2994 77.0143 74.8147 76.4774 74.2761C74.9205 72.1763 72.9878 70.3451 70.894 68.8375C69.176 67.6526 65.4174 66.0372 64.7196 64.0445C64.7196 64.0445 64.6656 63.9909 64.6122 63.9371C65.7932 63.8294 67.189 63.3985 68.3169 63.0754C70.1422 62.5903 71.8065 62.6984 73.6858 62.2136C74.5446 61.9982 75.4038 61.7289 76.2626 61.4596V60.9752C75.2967 60.0058 74.5986 58.7135 73.5784 57.798C70.8403 55.428 67.8333 53.1127 64.7196 51.1742C63.0551 50.097 60.9073 49.3969 59.1356 48.4816C58.4919 48.1582 57.4177 47.9969 57.0421 47.4583C56.0753 46.2738 55.5383 44.7122 54.8406 43.312C53.2841 40.3498 51.7803 37.0651 50.4379 33.942C49.472 31.8416 48.8814 29.7412 47.7001 27.803C42.1701 18.6482 36.1568 13.1015 26.9224 7.66224C24.9357 6.53155 22.5734 6.04683 20.0501 5.45471C18.7083 5.40055 17.3656 5.29314 16.0235 5.23898C15.1644 4.86198 14.3053 3.839 13.5536 3.35429C10.4938 1.41543 2.60094 -2.7845 0.346047 2.76217C-1.10373 6.26226 2.49386 9.7085 3.72823 11.4861C4.64167 12.7245 5.82235 14.1245 6.4667 15.5248C6.84256 16.4397 6.94965 17.4098 7.32551 18.3789C8.18495 20.7477 8.98976 23.387 10.1177 25.5951C10.7083 26.7258 11.3524 27.9104 12.1041 28.9336C12.5336 29.5258 13.2851 29.7954 13.4465 30.7645C12.695 31.8416 12.641 33.4573 12.2112 34.8035C10.2784 40.8887 11.0305 48.4278 13.7683 52.8973C14.6271 54.2431 16.6676 57.2059 19.4057 56.0746C21.822 55.1054 21.2851 52.0359 21.9825 49.3433C22.1442 48.6964 22.0368 48.2662 22.3587 47.8353V47.9434C23.1104 49.4507 23.8618 50.9052 24.5599 52.4129C26.2244 55.0513 29.1233 57.798 31.5393 59.6291C32.8283 60.5979 33.8482 62.2675 35.4591 62.8599V62.6981H35.3514C35.0292 62.2133 34.5459 61.9982 34.1167 61.6209C33.1505 60.6521 32.0763 59.4672 31.3248 58.3901C29.0703 55.3741 27.0832 52.0356 25.3116 48.589C24.4528 46.9201 23.7007 45.0889 23.003 43.4197C22.6805 42.7728 22.6805 41.804 22.1439 41.4811C21.3384 42.6657 20.1575 43.689 19.5668 45.1428C18.5472 47.4583 18.4395 50.3125 18.0636 53.274C17.8489 53.3285 17.9559 53.274 17.8486 53.3823C16.1309 52.9508 15.5403 51.1742 14.8956 49.6662C13.2848 45.8429 13.0163 39.7038 14.4127 35.2882C14.7885 34.1572 16.3994 30.6032 15.7551 29.5261C15.4329 28.5028 14.3587 27.9104 13.7683 27.1028C13.0706 26.0795 12.3186 24.7876 11.8356 23.6563C10.5469 20.6406 9.90258 17.3017 8.50681 14.286C7.86246 12.8858 6.73548 11.4322 5.82235 10.1397C4.80245 8.68583 3.67485 7.66224 2.86942 5.93912C2.60125 5.347 2.22507 4.37757 2.65464 3.73129C2.76203 3.30043 2.9765 3.13917 3.40637 3.03145C4.10441 2.43871 6.09114 3.19271 6.78856 3.51586C8.77529 4.32309 10.4395 5.07771 12.1041 6.2084C12.8555 6.74698 13.6609 7.77026 14.6271 8.03955H15.7548C17.473 8.41624 19.4054 8.14726 21.0163 8.63167C23.8621 9.54693 26.4389 10.8934 28.7478 12.3475C35.7812 16.817 41.5791 23.1715 45.4989 30.7645C46.1432 32.0026 46.4114 33.1342 47.002 34.4261C48.1299 37.0651 49.5257 39.7577 50.6527 42.3425C51.7803 44.8732 52.8539 47.4583 54.4648 49.5588C55.2702 50.6891 58.4913 51.2819 59.9411 51.8743C61.015 52.3587 62.6795 52.7899 63.6457 53.382C65.4711 54.5124 67.2964 55.8056 69.0146 57.0437C69.8738 57.69 72.5579 59.0364 72.7193 60.1132Z" fill="#00546B"/>
<path d="M17.9558 13.3164C17.0433 13.3164 16.3992 13.4247 15.7549 13.586V13.6937H15.8623C16.2921 14.5554 17.0433 15.1479 17.5799 15.9015C18.0098 16.763 18.3853 17.625 18.8152 18.4867C18.8686 18.4325 18.9223 18.379 18.9223 18.379C19.6743 17.8401 20.0499 16.9787 20.0499 15.6861C19.7277 15.3094 19.674 14.9324 19.4055 14.5554C19.0837 14.0165 18.3853 13.7476 17.9558 13.3164Z" fill="#00546B"/>
</svg>
