<svg width="79" height="81" viewBox="0 0 79 81" fill="none" xmlns="http://www.w3.org/2000/svg">
<path d="M78.6939 48.5037C78.2202 47.0773 76.9794 46.0838 75.3747 45.8454C74.618 45.7331 73.7515 45.7809 72.726 45.9911C70.9387 46.3578 69.6126 46.4974 68.6449 46.5244C72.2977 40.3926 75.2679 33.4002 76.9778 26.818C79.7428 16.1748 78.2653 11.3262 76.5387 9.13305C71.9694 3.32805 65.3028 0.209547 57.2602 0.114127C52.9699 0.0619676 49.2035 0.904183 47.2387 1.50984C45.4093 1.18891 43.4423 1.00973 41.3785 0.976593C37.5096 0.915229 34.0913 1.75376 31.1705 3.47716C29.5535 2.93348 26.9582 2.16705 23.9611 1.67798C16.9122 0.527411 11.231 1.42393 7.0755 4.34269C2.04357 7.87663 -0.289085 14.0167 0.142329 22.5922C0.279344 25.3149 1.8112 33.599 4.22317 41.4554C5.60938 45.9712 7.08754 49.7211 8.61662 52.6021C10.7851 56.6874 13.1054 59.0932 15.7103 59.9572C17.1702 60.4407 19.8229 60.7794 22.6129 58.4691C22.9665 58.895 23.4384 59.3181 24.0645 59.7111C24.8598 60.2097 25.8321 60.6171 26.8033 60.8586C30.303 61.7284 33.5812 61.5109 36.378 60.2916C36.3953 60.7862 36.4086 61.2587 36.4197 61.6668C36.4382 62.3286 36.4567 62.9775 36.4811 63.5844C36.6468 67.6878 36.9276 70.8784 37.7596 73.1108C37.8053 73.2335 37.8667 73.4207 37.9315 73.6192C38.3465 74.8827 39.0406 76.9979 40.8063 78.6544C42.6348 80.3704 44.8465 80.8966 46.8721 80.8966C47.888 80.8966 48.8572 80.764 49.7074 80.583C52.7378 79.9372 56.1796 78.9535 58.6693 75.4288C61.0232 72.0967 62.1675 67.0781 62.3746 59.1705C62.4014 58.9468 62.4261 58.7333 62.4499 58.5299L62.4992 58.112L63.0538 58.1604L63.1967 58.17C66.2832 58.3099 70.0573 57.6591 72.3752 56.5886C74.2067 55.7436 80.0758 52.6629 78.6939 48.5037Z" fill="black"/>
<path d="M73.4161 49.3124C64.2385 51.1947 63.6074 48.1054 63.6074 48.1054C73.2973 33.8098 77.3482 15.6637 73.8528 11.2225C64.316 -0.892252 47.8078 4.83727 47.5322 4.98577L47.4436 5.00173C45.6303 4.62741 43.6013 4.40466 41.3205 4.36753C37.1681 4.30003 34.0179 5.44999 31.6276 7.25224C31.6276 7.25224 2.17845 -4.81001 3.5483 22.4226C3.83962 28.2159 11.9001 66.2586 21.514 54.7679C25.028 50.5661 28.4234 47.0134 28.4234 47.0134C30.1096 48.1272 32.1284 48.6954 34.2447 48.4914L34.4092 48.3527C34.358 48.8743 34.3815 49.3845 34.475 49.9886C31.9982 52.7399 32.7262 53.2228 27.7751 54.2362C22.7651 55.2628 25.7081 57.0903 27.6297 57.5683C29.9593 58.1472 35.3486 58.9677 38.99 53.8993L38.845 54.4777C39.8152 55.2506 40.4965 59.5043 40.3824 63.3607C40.2682 67.2168 40.192 69.8643 40.9564 71.9323C41.7214 74.0002 42.4833 78.6531 48.9921 77.2666C54.4305 76.1078 57.2489 73.1049 57.6411 68.0958C57.9191 64.5349 58.549 65.0614 58.5885 61.8775L59.0936 60.3704C59.676 55.5433 59.1862 53.9859 62.5366 54.7103L63.3513 54.7814C65.817 54.8928 69.0449 54.3869 70.9393 53.5115C75.0183 51.6295 77.4377 48.4868 73.4155 49.3124H73.4161Z" fill="#336791"/>
<path d="M33.3517 25.0132C32.5247 24.8987 31.7757 25.0046 31.3968 25.2899C31.1838 25.4504 31.1178 25.6363 31.0999 25.7642C31.0524 26.1033 31.2912 26.4782 31.4381 26.6715C31.8535 27.2189 32.4602 27.595 33.0607 27.6779C33.1477 27.6901 33.2344 27.6957 33.3205 27.6957C34.3219 27.6957 35.2326 26.9203 35.3128 26.3481C35.4131 25.6314 34.3667 25.1537 33.3517 25.0135V25.0132ZM60.7499 25.0359C60.6709 24.4741 59.6655 24.3139 58.7113 24.4458C57.7584 24.5778 56.8345 25.0055 56.9116 25.5685C56.9733 26.0063 57.7686 26.7537 58.7098 26.7537C58.7894 26.7537 58.8696 26.7485 58.9505 26.7372C59.5788 26.6506 60.0398 26.2539 60.2589 26.0253C60.5922 25.6768 60.7854 25.2884 60.7499 25.0359Z" fill="white"/>
<path d="M76.4699 49.0985C76.12 48.0464 74.9936 47.708 73.1223 48.0921C67.5661 49.2322 65.5763 48.4425 64.923 47.9641C69.2418 41.4228 72.7946 33.5155 74.7113 26.138C75.6191 22.6434 76.1206 19.3979 76.1617 16.7525C76.207 13.849 75.7096 11.7154 74.6838 10.4121C70.548 5.15781 64.478 2.33938 57.1304 2.26206C52.079 2.2056 47.8111 3.49086 46.9838 3.8523C45.2415 3.42152 43.3421 3.15705 41.2742 3.1233C37.4822 3.06224 34.2043 3.9649 31.4906 5.80489C30.3117 5.36859 27.2653 4.32878 23.5396 3.73202C17.0987 2.70111 11.9803 3.48227 8.32782 6.05494C3.96955 9.12497 1.95752 14.6127 2.34727 22.3654C2.47842 24.9737 3.97325 32.9976 6.33214 40.6818C9.43721 50.7958 12.8126 56.5213 16.3639 57.6992C16.7796 57.8369 17.2588 57.9333 17.7874 57.9333C19.0829 57.9333 20.6713 57.3528 22.3238 55.3775C24.3394 52.9734 26.4244 50.6278 28.5762 48.3434C29.9723 49.0883 31.506 49.5044 33.0746 49.5461C33.0777 49.5869 33.0817 49.6277 33.0854 49.6682C32.8154 49.9883 32.551 50.3131 32.2923 50.6424C31.2054 52.0142 30.9792 52.2998 27.4807 53.0159C26.4855 53.2203 23.8424 53.7618 23.8035 55.6039C23.7615 57.6166 26.928 58.4619 27.2887 58.5515C28.546 58.8645 29.7572 59.0188 30.9122 59.0188C33.7214 59.0188 36.1935 58.1008 38.1691 56.3246C38.1083 63.4999 38.4092 70.5702 39.2758 72.7244C39.9855 74.488 41.7192 78.7978 47.1955 78.7975C47.9991 78.7975 48.8835 78.7046 49.8565 78.4972C55.572 77.2791 58.054 74.7675 59.014 69.2303C59.5278 66.2711 60.4095 59.2047 60.8242 55.4143C61.6994 55.6858 62.8261 55.8101 64.0441 55.8098C66.5844 55.8098 69.5158 55.2732 71.3541 54.4248C73.4192 53.4712 77.1458 51.1314 76.4699 49.0985ZM62.8591 23.4853C62.8403 24.6042 62.6854 25.6201 62.5212 26.6805C62.3444 27.8209 62.1617 29 62.1157 30.4313C62.0703 31.8243 62.2453 33.2725 62.4144 34.6731C62.7563 37.502 63.1072 40.4143 61.7491 43.2879C61.5235 42.8905 61.3225 42.4797 61.1473 42.0579C60.9785 41.6511 60.6119 40.9975 60.1043 40.093C58.1296 36.572 53.5053 28.3266 55.8725 24.962C56.5777 23.9605 58.3672 22.9309 62.8591 23.4853ZM57.4143 4.52791C63.9978 4.67242 69.2056 7.12114 72.8927 11.8056C75.7207 15.3988 72.6067 31.7482 63.5917 45.8529C63.501 45.7383 63.4099 45.6241 63.3183 45.5102L63.2041 45.3685C65.5337 41.5434 65.0782 37.7588 64.6727 34.4034C64.5061 33.0264 64.3487 31.7258 64.3888 30.5041C64.4302 29.2093 64.6023 28.0986 64.769 27.0247C64.9736 25.7014 65.1819 24.3321 65.1245 22.7179C65.1674 22.5486 65.1847 22.3485 65.1621 22.111C65.0156 20.5631 63.2381 15.9305 59.6152 11.7375C57.6334 9.44406 54.7434 6.87752 50.7974 5.14645C52.4947 4.79668 54.8156 4.47053 57.4143 4.52791ZM20.575 53.9318C18.7543 56.1083 17.4971 55.6911 17.0835 55.5542C14.3895 54.6608 11.2635 48.9994 8.50742 40.0219C6.12261 32.2538 4.729 24.4426 4.61852 22.2522C4.27043 15.3248 5.95936 10.4971 9.63872 7.9026C15.6267 3.68078 25.4714 6.20774 29.4273 7.48932C29.3705 7.54516 29.3113 7.59732 29.2551 7.65408C22.7635 14.1721 22.9175 25.3084 22.9336 25.9892C22.9329 26.2519 22.9552 26.6237 22.9854 27.1352C23.0971 29.0083 23.3051 32.4944 22.7496 36.4422C22.2337 40.1108 23.3711 43.7015 25.8698 46.2938C26.1263 46.5594 26.3958 46.8121 26.6774 47.0511C25.5652 48.2354 23.148 50.8544 20.575 53.9318ZM27.5119 44.7294C25.498 42.6399 24.5833 39.7338 25.0021 36.7552C25.5884 32.5849 25.3721 28.9528 25.2557 27.0014C25.2394 26.7283 25.2249 26.489 25.2165 26.3003C26.1648 25.4643 30.5595 23.1232 33.6936 23.8372C35.1236 24.1627 35.9951 25.1311 36.3574 26.7965C38.2324 35.419 36.6055 39.0127 35.2983 41.9008C35.0289 42.4957 34.7743 43.0581 34.557 43.6399L34.3886 44.0896C33.9621 45.2267 33.5652 46.284 33.3193 47.2879C31.1783 47.2818 29.0956 46.3724 27.5119 44.7291V44.7294ZM27.8405 56.3578C27.2153 56.2025 26.653 55.9328 26.3232 55.7092C26.5987 55.5803 27.0891 55.4048 27.9396 55.2305C32.0553 54.3883 32.691 53.7937 34.079 52.0415C34.3972 51.6395 34.7579 51.1842 35.2576 50.6295L35.2582 50.6289C36.0022 49.8005 36.3426 49.941 36.9598 50.1956C37.46 50.4012 37.9473 51.0247 38.1448 51.7107C38.2383 52.0347 38.3432 52.6496 37.9997 53.1282C35.1002 57.1647 30.8749 57.1129 27.8405 56.3578ZM49.38 76.2862C44.345 77.3589 42.5623 74.8046 41.3875 71.8846C40.6292 69.9995 40.2565 61.4988 40.5209 52.1111C40.5243 51.9862 40.5064 51.8657 40.4719 51.7521C40.4409 51.528 40.3939 51.3063 40.3311 51.0888C39.938 49.7228 38.9798 48.5802 37.8303 48.1065C37.3736 47.9184 36.5354 47.5733 35.5282 47.8295C35.743 46.9495 36.1154 45.9557 36.5194 44.8797L36.6888 44.4272C36.8795 43.9169 37.119 43.3883 37.372 42.8286C38.74 39.8071 40.6135 35.6684 38.5802 26.3187C37.8186 22.8167 35.2751 21.1065 31.4196 21.5038C29.1082 21.7416 26.9934 22.6688 25.9386 23.2006C25.7118 23.3147 25.5045 23.4251 25.3107 23.5325C25.6051 20.0041 26.7172 13.41 30.8777 9.23787C33.4973 6.61151 36.986 5.31428 41.2366 5.38424C49.6118 5.52047 54.9826 9.79383 58.0136 13.3551C60.6255 16.4236 62.0398 19.5147 62.6042 21.182C58.3595 20.7528 55.4726 21.5858 54.0093 23.666C50.8255 28.191 55.751 36.9733 58.1182 41.1942C58.5524 41.9677 58.927 42.6363 59.0449 42.9204C59.8158 44.7778 60.8137 46.018 61.5423 46.9231C61.7658 47.2005 61.9824 47.4696 62.1472 47.7046C60.8616 48.0731 58.5524 48.9245 58.7628 53.1804C58.5931 55.3158 57.3862 65.3138 56.773 68.8462C55.9636 73.5129 54.2364 75.251 49.38 76.2865V76.2862ZM70.3965 52.3741C69.0819 52.9806 66.8819 53.4356 64.7921 53.5335C62.4839 53.6409 61.3087 53.2764 61.0322 53.0521C60.9026 50.4 61.8954 50.1229 62.9461 49.8296C63.1112 49.7836 63.2723 49.7385 63.4278 49.6845C63.5244 49.7627 63.6303 49.8403 63.7463 49.9164C65.6016 51.1339 68.9106 51.2652 73.5824 50.3064L73.6337 50.2963C73.0035 50.882 71.9253 51.6681 70.3965 52.3741Z" fill="white"/>
</svg>
