<svg width="548" height="564" viewBox="0 0 548 564" fill="none" xmlns="http://www.w3.org/2000/svg">
<g clip-path="url(#clip0_260_532)">
<path d="M209.757 376.613H302.009C302.009 379.127 301.514 381.616 300.553 383.938C299.592 386.261 298.182 388.371 296.406 390.149C294.63 391.926 292.521 393.337 290.2 394.298C287.878 395.26 285.391 395.755 282.879 395.755H228.888C226.376 395.755 223.888 395.26 221.567 394.298C219.246 393.337 217.137 391.926 215.36 390.149C213.584 388.371 212.175 386.261 211.214 383.938C210.252 381.616 209.757 379.127 209.757 376.613Z" fill="#ECF2FA"/>
<path d="M302.399 378.22C302.196 381.48 301.163 384.634 299.397 387.382C297.632 390.129 295.193 392.379 292.313 393.917C291.176 394.462 289.985 394.889 288.761 395.191L288.826 395.017C289.237 393.843 289.367 392.59 289.202 391.357C289.038 390.124 288.584 388.947 287.879 387.923C287.173 386.898 286.236 386.055 285.143 385.463C284.05 384.87 282.833 384.544 281.59 384.512L211.971 382.521C211.516 381.111 211.23 379.654 211.117 378.177C211.627 378.25 212.142 378.286 212.658 378.285H236.984V379.987H242.085V378.285H255.108C254.971 378.582 254.819 378.879 254.682 379.176L274 379.161V378.307H301.003C301.47 378.309 301.936 378.28 302.399 378.22Z" fill="#8BBACC"/>
<path d="M223.786 379.169H222.086V394.482H223.786V379.169Z" fill="#274B5B"/>
<path opacity="0.2" d="M225.058 379.169H223.358V392.353H225.058V379.169Z" fill="#274B5B"/>
<path opacity="0.2" d="M235.688 379.169H233.987V392.353H235.688V379.169Z" fill="#274B5B"/>
<path opacity="0.2" d="M256.945 379.169H255.244V392.353H256.945V379.169Z" fill="#274B5B"/>
<path opacity="0.2" d="M267.575 379.169H265.875V392.353H267.575V379.169Z" fill="#274B5B"/>
<path opacity="0.2" d="M278.205 379.169H276.504V392.353H278.205V379.169Z" fill="#274B5B"/>
<path opacity="0.3" d="M274.802 379.169H273.102V392.353H274.802V379.169Z" fill="white"/>
<path opacity="0.3" d="M264.601 379.169H262.901V392.353H264.601V379.169Z" fill="white"/>
<path opacity="0.3" d="M253.972 379.169H252.271V392.353H253.972V379.169Z" fill="white"/>
<path opacity="0.3" d="M243.341 379.169H241.641V392.353H243.341V379.169Z" fill="white"/>
<path opacity="0.3" d="M232.715 379.169H231.014V392.353H232.715V379.169Z" fill="white"/>
<path opacity="0.3" d="M222.084 379.169H220.384V392.353H222.084V379.169Z" fill="white"/>
<path opacity="0.2" d="M246.318 379.169H244.618V392.353H246.318V379.169Z" fill="#274B5B"/>
<path d="M234.343 379.169H232.642V394.482H234.343V379.169Z" fill="#274B5B"/>
<path d="M244.905 379.169H243.205V394.482H244.905V379.169Z" fill="#274B5B"/>
<path d="M255.461 379.169H253.76V394.482H255.461V379.169Z" fill="#274B5B"/>
<path d="M276.577 379.169H274.876V394.482H276.577V379.169Z" fill="#274B5B"/>
<path d="M287.133 379.169H285.433V394.482H287.133V379.169Z" fill="#274B5B"/>
<path d="M266.011 379.169H264.311V394.482H266.011V379.169Z" fill="#274B5B"/>
<path opacity="0.4" d="M539.982 234.954H435.871C435.736 232.971 435.572 230.985 435.379 228.996H476.194C478.167 228.996 480.058 228.212 481.453 226.816C482.848 225.42 483.632 223.527 483.632 221.553C483.632 219.579 482.848 217.686 481.453 216.29C480.058 214.894 478.167 214.11 476.194 214.11H433.179C431.074 203.873 427.731 194.287 422.594 186.185C412.529 170.315 396.821 162.423 381.352 160.773C365.882 159.122 350.384 163.053 335.161 167.289C314.901 172.958 291.061 178.062 275.787 159.325C266.749 148.218 263.146 130.024 266.38 114.169C267.238 110.281 268.296 106.441 269.55 102.664H323.2C325.174 102.664 327.065 101.88 328.46 100.484C329.855 99.0882 330.638 97.1949 330.638 95.2213C330.638 93.2477 329.855 91.3544 328.46 89.9585C327.065 88.5626 325.174 87.7785 323.2 87.7785H273.471C273.846 85.4856 274.03 83.1659 274.021 80.8425C273.921 75.2489 272.595 69.7449 270.137 64.7197C267.679 59.6946 264.15 55.2703 259.796 51.7593C251.989 45.6125 242.851 43.4404 233.864 41.8911C213.793 38.3724 193.093 37.3081 173.542 44.1644C155.041 24.1891 128.986 17.4342 106.253 26.8824C99.7625 29.4744 93.9814 33.5741 89.3869 38.843H133.74C135.659 38.843 137.5 39.6058 138.856 40.9635C140.214 42.3213 140.976 44.1629 140.976 46.0831C140.976 48.0033 140.214 49.8448 138.856 51.2026C137.5 52.5603 135.659 53.3231 133.74 53.3231H81.645C78.3022 64.1832 78.3311 76.8678 78.4975 88.85C78.4975 90.1967 78.5337 91.5433 78.5554 92.89H99.5527C101.526 92.89 103.417 93.6741 104.812 95.07C106.207 96.4659 106.991 98.3591 106.991 100.333C106.991 102.306 106.207 104.2 104.812 105.596C103.417 106.991 101.526 107.776 99.5527 107.776H78.8231L78.9389 115.855H127.612C129.585 115.855 131.476 116.64 132.871 118.035C134.266 119.431 135.05 121.325 135.05 123.298C135.05 125.272 134.266 127.165 132.871 128.561C131.476 129.957 129.585 130.741 127.612 130.741H79.1343C79.1343 132.442 79.1777 134.173 79.2066 135.896C79.3803 147.987 79.5105 160.411 76.3703 171.734C66.6822 206.609 32.3355 215.03 13.7694 242.614H91.9121C93.8852 242.614 95.7765 243.398 97.1715 244.794C98.5665 246.19 99.3501 248.083 99.3501 250.057C99.3501 252.031 98.5665 253.924 97.1715 255.32C95.7765 256.716 93.8852 257.5 91.9121 257.5H6.19385C5.51854 259.305 4.90353 261.149 4.34881 263.031H59.5915C61.5641 263.031 63.4561 263.815 64.851 265.211C66.2458 266.607 67.0295 268.5 67.0295 270.474C67.0295 272.448 66.2458 274.341 64.851 275.737C63.4561 277.133 61.5641 277.917 59.5915 277.917H1.22309C-0.764505 293.974 1.16192 310.275 6.8378 325.426C19.4564 358.332 48.8034 375.013 76.3558 374.492C103.908 373.971 130.202 359.179 154.926 342.766C173.608 330.349 193.165 316.484 213.96 318.447C235.167 320.445 253.32 338.473 272.509 350.752C303.759 370.749 340.16 375.853 373.805 364.964C388.681 360.149 403.427 351.932 414.324 337.51C424.895 323.471 430.9 304.929 433.859 285.186H462.345C464.264 285.186 466.105 284.423 467.462 283.065C468.819 281.708 469.581 279.866 469.581 277.946C469.581 276.026 468.819 274.184 467.462 272.826C466.105 271.469 464.264 270.706 462.345 270.706H435.567C436.102 264.045 436.348 257.341 436.363 250.709V249.854H539.982C541.955 249.854 543.846 249.07 545.241 247.674C546.636 246.278 547.42 244.385 547.42 242.412C547.42 240.438 546.636 238.545 545.241 237.149C543.846 235.753 541.955 234.969 539.982 234.969V234.954Z" fill="url(#paint0_linear_260_532)"/>
<path d="M193.615 358.317C193.615 358.317 158.885 401.598 154.174 462.292C154.13 462.908 153.872 463.489 153.446 463.936C153.02 464.383 152.452 464.669 151.84 464.743C151.227 464.817 150.607 464.677 150.086 464.344C149.566 464.012 149.177 463.509 148.987 462.922C137.084 426.671 111.811 321.864 190.648 257.927" fill="#03989E"/>
<path d="M153.659 465.897C153.836 466.467 154.201 466.959 154.693 467.294C154.352 467.524 153.961 467.671 153.553 467.723C153.144 467.776 152.73 467.732 152.341 467.597C151.952 467.462 151.6 467.237 151.313 466.943C151.026 466.647 150.811 466.29 150.685 465.897C138.783 429.646 113.509 324.839 192.347 260.902L192.419 263.313C117.112 327.446 141.908 430.102 153.659 465.897Z" fill="#3EE3EA"/>
<path opacity="0.8" d="M145.888 451.881C145.686 435.055 149.977 417.425 155.598 401.635C158.493 393.555 161.705 385.96 164.867 379.191C174.77 358.054 179.384 334.823 178.311 311.503C177.688 298.008 177.182 282.869 177.182 269.388C183.412 261.67 181.292 260.975 189.8 254.075L192.774 354.466C192.774 354.466 158.044 397.747 153.334 458.44C153.314 458.813 153.212 459.177 153.038 459.507C152.863 459.837 152.618 460.126 152.321 460.352" fill="#046468"/>
<path d="M145.773 394.901C145.478 394.901 145.19 394.814 144.944 394.65C144.7 394.486 144.508 394.253 144.396 393.98C144.283 393.708 144.253 393.408 144.311 393.119C144.368 392.83 144.51 392.564 144.719 392.355C144.927 392.146 145.193 392.005 145.482 391.947C145.771 391.889 146.071 391.919 146.343 392.032C146.615 392.145 146.848 392.336 147.012 392.582C147.176 392.826 147.263 393.115 147.263 393.41C147.263 393.805 147.106 394.184 146.826 394.465C146.547 394.744 146.168 394.901 145.773 394.901ZM145.773 392.773C145.647 392.773 145.524 392.81 145.419 392.88C145.314 392.95 145.232 393.05 145.185 393.166C145.136 393.282 145.124 393.411 145.148 393.534C145.173 393.657 145.233 393.771 145.322 393.86C145.412 393.949 145.525 394.01 145.648 394.035C145.772 394.059 145.9 394.047 146.017 393.998C146.132 393.95 146.232 393.869 146.302 393.764C146.372 393.659 146.41 393.536 146.41 393.41C146.407 393.242 146.339 393.082 146.22 392.964C146.101 392.846 145.94 392.78 145.773 392.78V392.773Z" fill="#274B5B"/>
<path opacity="0.2" d="M145.774 396.183C145.227 396.183 144.693 396.021 144.239 395.716C143.784 395.412 143.43 394.981 143.221 394.476C143.012 393.97 142.957 393.414 143.063 392.878C143.17 392.341 143.434 391.848 143.82 391.462C144.206 391.075 144.699 390.811 145.235 390.704C145.771 390.598 146.327 390.653 146.832 390.862C147.337 391.071 147.768 391.425 148.072 391.881C148.376 392.335 148.538 392.87 148.538 393.417C148.538 394.15 148.247 394.854 147.729 395.373C147.21 395.891 146.507 396.183 145.774 396.183ZM145.774 392.353C145.564 392.353 145.358 392.415 145.183 392.532C145.009 392.649 144.872 392.815 144.792 393.009C144.711 393.204 144.69 393.419 144.731 393.625C144.772 393.831 144.873 394.021 145.022 394.169C145.171 394.318 145.36 394.42 145.567 394.461C145.773 394.502 145.987 394.481 146.181 394.4C146.376 394.32 146.542 394.183 146.658 394.009C146.776 393.833 146.838 393.628 146.838 393.417C146.838 393.277 146.81 393.139 146.757 393.009C146.703 392.881 146.625 392.763 146.526 392.664C146.428 392.566 146.31 392.487 146.181 392.434C146.052 392.38 145.914 392.353 145.774 392.353Z" fill="#274B5B"/>
<path d="M151.72 340.029C151.424 340.029 151.136 339.942 150.891 339.778C150.646 339.614 150.455 339.381 150.342 339.108C150.229 338.836 150.2 338.536 150.257 338.247C150.315 337.958 150.457 337.691 150.665 337.483C150.874 337.274 151.139 337.132 151.429 337.075C151.717 337.017 152.017 337.047 152.29 337.16C152.562 337.273 152.795 337.464 152.958 337.71C153.123 337.954 153.209 338.243 153.209 338.538C153.209 338.933 153.052 339.312 152.773 339.593C152.494 339.872 152.115 340.029 151.72 340.029ZM151.72 337.901C151.593 337.901 151.47 337.938 151.366 338.008C151.261 338.078 151.179 338.177 151.131 338.294C151.083 338.41 151.07 338.538 151.094 338.662C151.119 338.785 151.18 338.899 151.269 338.988C151.358 339.077 151.471 339.138 151.595 339.163C151.719 339.187 151.846 339.175 151.963 339.126C152.079 339.078 152.178 338.997 152.248 338.892C152.319 338.787 152.356 338.664 152.356 338.538C152.356 338.369 152.289 338.207 152.17 338.087C152.05 337.968 151.888 337.901 151.72 337.901Z" fill="#274B5B"/>
<path opacity="0.2" d="M151.721 341.303C151.174 341.303 150.64 341.141 150.185 340.837C149.73 340.533 149.377 340.102 149.167 339.596C148.958 339.091 148.903 338.535 149.01 337.998C149.116 337.462 149.38 336.969 149.767 336.582C150.153 336.196 150.645 335.932 151.181 335.825C151.717 335.718 152.274 335.773 152.779 335.983C153.284 336.192 153.715 336.547 154.019 337.001C154.323 337.456 154.485 337.99 154.485 338.538C154.485 339.271 154.193 339.975 153.675 340.493C153.156 341.012 152.454 341.303 151.721 341.303ZM151.721 337.473C151.51 337.473 151.305 337.536 151.13 337.653C150.955 337.77 150.819 337.936 150.738 338.13C150.657 338.325 150.636 338.539 150.678 338.746C150.719 338.952 150.82 339.142 150.968 339.29C151.118 339.439 151.307 339.54 151.513 339.582C151.719 339.622 151.934 339.601 152.128 339.521C152.322 339.441 152.488 339.304 152.605 339.129C152.722 338.954 152.785 338.748 152.785 338.538C152.785 338.398 152.757 338.26 152.704 338.13C152.65 338.001 152.572 337.884 152.473 337.785C152.374 337.686 152.257 337.608 152.128 337.555C151.999 337.501 151.861 337.473 151.721 337.473Z" fill="#274B5B"/>
<path d="M360.462 340.029C360.167 340.029 359.879 339.942 359.634 339.778C359.389 339.614 359.198 339.381 359.085 339.108C358.972 338.836 358.943 338.536 359 338.247C359.058 337.958 359.2 337.691 359.408 337.483C359.617 337.274 359.882 337.132 360.172 337.075C360.46 337.017 360.76 337.047 361.033 337.16C361.305 337.273 361.538 337.464 361.701 337.71C361.865 337.954 361.952 338.243 361.952 338.538C361.952 338.933 361.795 339.312 361.516 339.593C361.237 339.872 360.858 340.029 360.462 340.029ZM360.462 337.901C360.336 337.901 360.213 337.938 360.109 338.008C360.004 338.078 359.922 338.177 359.874 338.294C359.826 338.41 359.813 338.538 359.837 338.662C359.862 338.785 359.923 338.899 360.012 338.988C360.101 339.077 360.214 339.138 360.338 339.163C360.462 339.187 360.589 339.175 360.706 339.126C360.822 339.078 360.921 338.997 360.991 338.892C361.062 338.787 361.099 338.664 361.099 338.538C361.099 338.369 361.032 338.207 360.913 338.087C360.793 337.968 360.631 337.901 360.462 337.901Z" fill="#274B5B"/>
<path opacity="0.2" d="M360.464 341.303C359.917 341.303 359.383 341.141 358.928 340.837C358.473 340.533 358.12 340.102 357.91 339.596C357.701 339.091 357.646 338.535 357.753 337.998C357.859 337.462 358.122 336.969 358.51 336.582C358.896 336.196 359.388 335.932 359.924 335.825C360.46 335.718 361.017 335.773 361.522 335.983C362.027 336.192 362.458 336.547 362.762 337.001C363.066 337.456 363.228 337.99 363.228 338.538C363.228 339.271 362.936 339.975 362.418 340.493C361.899 341.012 361.197 341.303 360.464 341.303ZM360.464 337.473C360.253 337.473 360.048 337.536 359.873 337.653C359.698 337.77 359.562 337.936 359.481 338.13C359.4 338.325 359.379 338.539 359.421 338.746C359.462 338.952 359.563 339.142 359.711 339.29C359.86 339.439 360.05 339.54 360.256 339.582C360.462 339.622 360.677 339.601 360.871 339.521C361.065 339.441 361.231 339.304 361.348 339.129C361.465 338.954 361.527 338.748 361.527 338.538C361.527 338.398 361.5 338.26 361.446 338.13C361.393 338.001 361.315 337.884 361.216 337.785C361.117 337.686 361 337.608 360.871 337.555C360.742 337.501 360.604 337.473 360.464 337.473Z" fill="#274B5B"/>
<path d="M359.19 340.029C358.895 340.029 358.607 339.942 358.362 339.778C358.117 339.614 357.926 339.381 357.813 339.108C357.701 338.836 357.671 338.536 357.728 338.247C357.786 337.958 357.928 337.691 358.136 337.483C358.345 337.274 358.61 337.132 358.899 337.075C359.188 337.017 359.488 337.047 359.761 337.16C360.033 337.273 360.266 337.464 360.43 337.71C360.593 337.954 360.681 338.243 360.681 338.538C360.681 338.933 360.524 339.312 360.244 339.593C359.965 339.872 359.585 340.029 359.19 340.029ZM359.19 337.901C359.064 337.901 358.941 337.938 358.837 338.008C358.732 338.078 358.65 338.177 358.602 338.294C358.554 338.41 358.541 338.538 358.566 338.662C358.591 338.785 358.651 338.899 358.74 338.988C358.829 339.077 358.942 339.138 359.066 339.163C359.19 339.187 359.318 339.175 359.433 339.126C359.55 339.078 359.65 338.997 359.719 338.892C359.789 338.787 359.827 338.664 359.827 338.538C359.827 338.369 359.76 338.207 359.64 338.087C359.521 337.968 359.359 337.901 359.19 337.901Z" fill="#274B5B"/>
<path opacity="0.2" d="M359.189 341.303C358.642 341.303 358.108 341.141 357.653 340.837C357.199 340.533 356.844 340.102 356.635 339.596C356.426 339.091 356.371 338.535 356.478 337.998C356.585 337.462 356.848 336.969 357.234 336.582C357.621 336.196 358.114 335.932 358.65 335.825C359.186 335.718 359.742 335.773 360.247 335.983C360.752 336.192 361.183 336.547 361.487 337.001C361.791 337.456 361.953 337.99 361.953 338.538C361.953 339.271 361.662 339.975 361.143 340.493C360.625 341.012 359.922 341.303 359.189 341.303ZM359.189 337.473C358.978 337.473 358.773 337.536 358.598 337.653C358.423 337.77 358.287 337.936 358.206 338.13C358.126 338.325 358.104 338.539 358.145 338.746C358.187 338.952 358.288 339.142 358.437 339.29C358.585 339.439 358.775 339.54 358.981 339.582C359.187 339.622 359.401 339.601 359.596 339.521C359.79 339.441 359.956 339.304 360.073 339.129C360.19 338.954 360.252 338.748 360.252 338.538C360.252 338.398 360.225 338.26 360.171 338.13C360.118 338.001 360.04 337.884 359.941 337.785C359.842 337.686 359.725 337.608 359.596 337.555C359.467 337.501 359.328 337.473 359.189 337.473Z" fill="#274B5B"/>
<path d="M160.448 296.64H158.747V436.17H160.448V296.64Z" fill="#274B5B"/>
<path opacity="0.2" d="M162.147 293.236H160.446V436.169H162.147V293.236Z" fill="#274B5B"/>
<path opacity="0.3" d="M158.746 296.64H157.046V436.17H158.746V296.64Z" fill="white"/>
<path d="M170.221 278.344H168.521V404.263H170.221V278.344Z" fill="#274B5B"/>
<path opacity="0.2" d="M171.922 278.344H170.222V404.263H171.922V278.344Z" fill="#274B5B"/>
<path opacity="0.3" d="M168.522 278.344H166.822V404.263H168.522V278.344Z" fill="white"/>
<path opacity="0.2" d="M343.641 509.345C334.511 509.33 325.76 505.689 319.309 499.224C312.859 492.759 309.236 483.996 309.236 474.861V441.274H318.592V474.853C318.592 479.071 319.652 483.221 321.677 486.92C323.701 490.62 326.624 493.75 330.175 496.022C333.726 498.294 337.791 499.635 341.997 499.92C346.203 500.206 350.412 499.428 354.238 497.657C358.063 495.887 361.382 493.182 363.888 489.79C366.393 486.398 368.005 482.43 368.575 478.251C369.145 474.072 368.654 469.816 367.148 465.877C365.641 461.938 363.168 458.442 359.957 455.711L366.013 448.579C371.205 452.997 374.972 458.856 376.836 465.415C378.701 471.975 378.581 478.94 376.49 485.43C374.399 491.921 370.431 497.646 365.089 501.88C359.747 506.115 353.27 508.67 346.477 509.222C345.532 509.304 344.586 509.345 343.641 509.345Z" fill="#046E73"/>
<path opacity="0.2" d="M339.741 494.771C338.729 494.77 337.718 494.695 336.717 494.546L338.077 485.286C339.892 485.551 341.744 485.362 343.468 484.739C345.193 484.116 346.737 483.077 347.965 481.713C349.192 480.351 350.064 478.706 350.504 476.925C350.945 475.144 350.939 473.281 350.488 471.503C350.038 469.724 349.156 468.085 347.92 466.729C346.685 465.373 345.134 464.343 343.406 463.73C341.678 463.117 339.825 462.94 338.012 463.214C336.199 463.489 334.482 464.206 333.013 465.304L327.427 457.796C330.028 455.86 333.051 454.568 336.247 454.028C339.443 453.488 342.723 453.714 345.815 454.688C348.907 455.661 351.725 457.355 354.036 459.63C356.347 461.905 358.086 464.696 359.11 467.773C360.134 470.851 360.414 474.128 359.927 477.335C359.439 480.542 358.199 483.588 356.307 486.222C354.416 488.856 351.926 491.004 349.044 492.489C346.162 493.974 342.969 494.753 339.727 494.764L339.741 494.771Z" fill="#046E73"/>
<path opacity="0.2" d="M342.823 436.17C346.579 436.17 349.624 433.123 349.624 429.364C349.624 425.606 346.579 422.559 342.823 422.559C339.066 422.559 336.022 425.606 336.022 429.364C336.022 433.123 339.066 436.17 342.823 436.17Z" fill="#046E73"/>
<path d="M356.201 467.179C356.024 467.749 355.659 468.241 355.167 468.576C355.509 468.806 355.899 468.953 356.308 469.005C356.716 469.058 357.131 469.014 357.52 468.879C357.908 468.743 358.26 468.519 358.548 468.224C358.835 467.929 359.05 467.571 359.175 467.179C371.077 430.928 396.351 326.121 317.513 262.184L317.441 264.595C392.748 328.698 367.959 431.377 356.201 467.179Z" fill="white"/>
<path d="M316.602 362.575C316.602 362.575 351.332 405.856 356.042 466.549C356.087 467.165 356.345 467.747 356.77 468.193C357.196 468.641 357.764 468.926 358.377 469C358.99 469.074 359.609 468.934 360.13 468.602C360.651 468.269 361.039 467.766 361.23 467.179C373.125 430.928 398.406 326.121 319.583 262.184" fill="#03989E"/>
<path opacity="0.8" d="M364.335 456.123C364.537 439.297 360.247 421.668 354.625 405.877C351.731 397.797 348.518 390.203 345.356 383.433C335.449 362.31 330.825 339.092 331.884 315.782C332.506 302.287 333.012 287.148 333.012 273.667C326.783 265.949 328.903 265.254 320.394 258.354L317.413 358.745C317.413 358.745 352.143 402.026 356.853 462.719C356.874 463.092 356.975 463.456 357.15 463.786C357.324 464.116 357.569 464.404 357.866 464.63" fill="#046468"/>
<path d="M364.291 395.307C363.997 395.307 363.709 395.219 363.464 395.056C363.218 394.892 363.027 394.659 362.914 394.386C362.802 394.114 362.773 393.814 362.83 393.525C362.888 393.236 363.03 392.969 363.238 392.761C363.446 392.552 363.712 392.41 364.001 392.353C364.29 392.295 364.589 392.325 364.862 392.438C365.134 392.551 365.367 392.742 365.531 392.987C365.695 393.232 365.782 393.521 365.782 393.816C365.782 394.211 365.625 394.59 365.346 394.87C365.066 395.15 364.687 395.307 364.291 395.307ZM364.291 393.178C364.165 393.178 364.042 393.216 363.938 393.286C363.833 393.356 363.752 393.455 363.703 393.572C363.655 393.688 363.642 393.816 363.667 393.94C363.692 394.063 363.752 394.177 363.841 394.266C363.93 394.355 364.044 394.416 364.168 394.44C364.291 394.465 364.419 394.453 364.535 394.404C364.652 394.356 364.751 394.275 364.821 394.17C364.891 394.065 364.928 393.942 364.928 393.816C364.923 393.651 364.854 393.494 364.734 393.379C364.616 393.264 364.457 393.2 364.291 393.2V393.178Z" fill="#274B5B"/>
<path opacity="0.2" d="M364.29 396.61C363.743 396.61 363.21 396.448 362.754 396.144C362.3 395.84 361.946 395.408 361.737 394.903C361.527 394.397 361.473 393.841 361.579 393.305C361.686 392.768 361.949 392.275 362.336 391.889C362.723 391.502 363.215 391.239 363.751 391.131C364.288 391.025 364.843 391.08 365.348 391.289C365.853 391.499 366.285 391.853 366.588 392.308C366.892 392.763 367.054 393.297 367.054 393.844C367.054 394.578 366.763 395.282 366.245 395.8C365.727 396.318 365.023 396.61 364.29 396.61ZM364.29 392.78C364.08 392.78 363.874 392.842 363.699 392.96C363.524 393.076 363.388 393.243 363.308 393.437C363.227 393.631 363.206 393.846 363.247 394.052C363.288 394.258 363.39 394.448 363.538 394.597C363.687 394.746 363.877 394.847 364.083 394.888C364.289 394.929 364.503 394.908 364.697 394.828C364.892 394.747 365.057 394.61 365.175 394.436C365.292 394.261 365.354 394.055 365.354 393.844C365.354 393.562 365.242 393.291 365.042 393.091C364.843 392.892 364.573 392.78 364.29 392.78Z" fill="#274B5B"/>
<path d="M351.325 296.212H349.625V440H351.325V296.212Z" fill="#274B5B"/>
<path opacity="0.2" d="M349.624 295.785H347.923V428.083H349.624V295.785Z" fill="#274B5B"/>
<path opacity="0.3" d="M353.027 300.469H351.326V440H353.027V300.469Z" fill="white"/>
<path d="M341.549 282.174H339.848V408.093H341.549V282.174Z" fill="#274B5B"/>
<path opacity="0.2" d="M339.85 282.174H338.15V403.836H339.85V282.174Z" fill="#274B5B"/>
<path opacity="0.3" d="M343.25 282.174H341.55V408.093H343.25V282.174Z" fill="white"/>
<path d="M358.726 469.228C358.485 469.228 358.243 469.213 358.003 469.184C356.654 469.034 355.4 468.415 354.461 467.434C353.523 466.454 352.958 465.175 352.866 463.82C348.307 404.791 314.46 362.024 314.12 361.597L319.091 357.601C319.452 358.05 328.099 368.895 337.411 387.386C345.768 403.973 356.172 429.979 359.001 460.721C364.79 442.534 373.183 408.911 371.244 372.255C368.784 325.802 350.695 288.574 317.564 261.685L321.58 256.725C339.914 271.422 354.442 290.32 363.936 311.822C371.859 329.821 376.461 350.035 377.618 371.914C379.702 411.344 370.151 447.283 364.269 465.195C363.895 466.37 363.155 467.395 362.158 468.12C361.161 468.846 359.959 469.234 358.726 469.228Z" fill="#274B5B"/>
<path opacity="0.2" d="M68.1878 563.363H38.0088C36.7682 563.363 35.5784 562.87 34.7012 561.992C33.8239 561.115 33.3311 559.924 33.3311 558.683C33.3311 557.441 33.8239 556.251 34.7012 555.372C35.5784 554.495 36.7682 554.002 38.0088 554.002H68.1878C69.4284 554.002 70.6182 554.495 71.4954 555.372C72.3727 556.251 72.8656 557.441 72.8656 558.683C72.8656 559.924 72.3727 561.115 71.4954 561.992C70.6182 562.87 69.4284 563.363 68.1878 563.363Z" fill="#046E73"/>
<path opacity="0.2" d="M201.282 521.653C193.268 521.678 185.44 519.236 178.86 514.658C172.279 510.08 167.264 503.588 164.496 496.062C161.728 488.536 161.339 480.341 163.383 472.587C165.427 464.832 169.805 457.894 175.922 452.713L181.978 459.845C178.172 463.083 175.242 467.227 173.457 471.896C171.673 476.565 171.092 481.608 171.768 486.561C172.443 491.514 174.354 496.217 177.324 500.236C180.295 504.256 184.228 507.463 188.762 509.561C193.297 511.659 198.286 512.581 203.27 512.243C208.255 511.904 213.073 510.315 217.282 507.623C221.491 504.93 224.955 501.221 227.355 496.836C229.755 492.453 231.013 487.534 231.013 482.535V408.94H240.368V482.535C240.368 492.904 236.252 502.849 228.925 510.181C221.597 517.513 211.66 521.631 201.297 521.631L201.282 521.653Z" fill="#046E73"/>
<path opacity="0.2" d="M272.871 539.557C267.074 539.548 261.516 537.238 257.419 533.133C253.321 529.028 251.018 523.465 251.013 517.663V445.118H260.369V517.663C260.37 519.77 260.901 521.841 261.913 523.687C262.924 525.533 264.384 527.096 266.158 528.23C267.931 529.363 269.961 530.032 272.06 530.174C274.16 530.316 276.262 529.927 278.172 529.043C280.082 528.159 281.738 526.808 282.99 525.116C284.241 523.422 285.047 521.441 285.332 519.355C285.617 517.269 285.372 515.144 284.621 513.178C283.87 511.21 282.636 509.464 281.033 508.099L287.089 500.968C290.389 503.774 292.784 507.496 293.969 511.664C295.155 515.832 295.079 520.258 293.751 524.382C292.422 528.507 289.902 532.144 286.507 534.835C283.113 537.527 278.997 539.149 274.68 539.499C274.073 539.538 273.47 539.557 272.871 539.557Z" fill="#046E73"/>
<path opacity="0.2" d="M259.498 409.367H250.143V431.913H259.498V409.367Z" fill="#046E73"/>
<path opacity="0.2" d="M203.7 502.858C202.688 502.857 201.677 502.782 200.676 502.633L202.036 493.373C203.851 493.637 205.703 493.449 207.427 492.826C209.152 492.203 210.696 491.164 211.924 489.8C213.151 488.438 214.023 486.792 214.464 485.011C214.904 483.23 214.899 481.368 214.448 479.59C213.997 477.811 213.115 476.171 211.879 474.816C210.644 473.459 209.094 472.429 207.365 471.817C205.637 471.203 203.784 471.026 201.971 471.301C200.159 471.576 198.441 472.293 196.972 473.391L191.386 465.883C193.987 463.947 197.01 462.655 200.206 462.115C203.403 461.575 206.682 461.801 209.774 462.775C212.866 463.748 215.684 465.442 217.995 467.717C220.306 469.991 222.045 472.783 223.069 475.86C224.093 478.938 224.373 482.215 223.886 485.422C223.399 488.629 222.158 491.675 220.267 494.309C218.375 496.943 215.886 499.091 213.003 500.576C210.121 502.061 206.928 502.84 203.686 502.85L203.7 502.858Z" fill="#046E73"/>
<path opacity="0.2" d="M282.458 490.195C279.516 490.195 276.639 489.322 274.193 487.686C271.746 486.051 269.84 483.726 268.714 481.006C267.588 478.286 267.293 475.293 267.867 472.405C268.441 469.518 269.858 466.865 271.939 464.784C274.019 462.701 276.67 461.284 279.555 460.71C282.441 460.136 285.432 460.43 288.15 461.557C290.869 462.683 293.192 464.591 294.827 467.039C296.461 469.487 297.334 472.365 297.334 475.309C297.328 479.255 295.759 483.038 292.97 485.828C290.181 488.619 286.401 490.189 282.458 490.195ZM282.458 469.778C281.364 469.778 280.296 470.102 279.386 470.71C278.477 471.318 277.769 472.182 277.35 473.192C276.932 474.203 276.823 475.315 277.036 476.388C277.25 477.461 277.776 478.447 278.549 479.22C279.322 479.994 280.306 480.521 281.379 480.734C282.451 480.948 283.563 480.839 284.573 480.419C285.583 480.001 286.446 479.292 287.054 478.382C287.661 477.473 287.985 476.403 287.985 475.309C287.983 473.842 287.401 472.437 286.364 471.4C285.328 470.363 283.923 469.78 282.458 469.778Z" fill="#046E73"/>
<path opacity="0.2" d="M208.881 452.337C205.941 452.331 203.068 451.453 200.625 449.814C198.183 448.176 196.28 445.85 195.159 443.129C194.037 440.409 193.747 437.417 194.323 434.532C194.9 431.647 196.318 428.997 198.399 426.918C200.48 424.839 203.13 423.424 206.014 422.85C208.898 422.277 211.888 422.573 214.605 423.699C217.321 424.826 219.644 426.732 221.278 429.179C222.912 431.625 223.785 434.502 223.786 437.444C223.782 441.396 222.21 445.186 219.415 447.978C216.62 450.771 212.832 452.339 208.881 452.337ZM208.881 431.92C207.788 431.92 206.719 432.244 205.81 432.852C204.902 433.46 204.192 434.323 203.774 435.334C203.356 436.345 203.246 437.457 203.459 438.53C203.673 439.604 204.2 440.589 204.972 441.362C205.746 442.136 206.731 442.663 207.803 442.876C208.875 443.09 209.987 442.98 210.997 442.561C212.007 442.143 212.87 441.434 213.478 440.525C214.085 439.614 214.409 438.545 214.409 437.451C214.409 435.984 213.827 434.576 212.79 433.537C211.754 432.499 210.348 431.915 208.881 431.912V431.92Z" fill="#046E73"/>
<path opacity="0.2" d="M410.844 452.336C407.902 452.336 405.026 451.463 402.58 449.828C400.134 448.192 398.226 445.867 397.101 443.147C395.975 440.427 395.68 437.434 396.254 434.547C396.828 431.66 398.245 429.007 400.325 426.925C402.406 424.843 405.057 423.425 407.942 422.851C410.828 422.277 413.819 422.572 416.537 423.698C419.255 424.825 421.579 426.733 423.213 429.181C424.848 431.628 425.72 434.507 425.72 437.451C425.715 441.397 424.146 445.18 421.357 447.97C418.569 450.76 414.788 452.331 410.844 452.336ZM410.844 431.92C409.751 431.92 408.682 432.244 407.774 432.851C406.864 433.459 406.156 434.323 405.737 435.334C405.319 436.345 405.209 437.457 405.423 438.53C405.636 439.603 406.163 440.589 406.936 441.362C407.709 442.136 408.694 442.662 409.766 442.876C410.838 443.089 411.95 442.98 412.96 442.561C413.97 442.142 414.833 441.434 415.441 440.524C416.048 439.614 416.372 438.545 416.372 437.451C416.372 435.983 415.79 434.575 414.754 433.537C413.717 432.499 412.312 431.914 410.844 431.912V431.92Z" fill="#046E73"/>
<path opacity="0.2" d="M119.631 471.899C121.509 471.899 123.032 470.376 123.032 468.497C123.032 466.617 121.509 465.094 119.631 465.094C117.753 465.094 116.23 466.617 116.23 468.497C116.23 470.376 117.753 471.899 119.631 471.899Z" fill="#046E73"/>
<path opacity="0.2" d="M309.237 530.182C311.115 530.182 312.637 528.658 312.637 526.779C312.637 524.899 311.115 523.376 309.237 523.376C307.359 523.376 305.836 524.899 305.836 526.779C305.836 528.658 307.359 530.182 309.237 530.182Z" fill="#046E73"/>
<path opacity="0.2" d="M423.599 542.946H414.243C414.235 536.291 411.59 529.911 406.887 525.205C402.185 520.5 395.808 517.853 389.158 517.845H382.784V508.483H389.158C398.289 508.493 407.043 512.127 413.5 518.588C419.957 525.049 423.589 533.809 423.599 542.946Z" fill="#046468"/>
<path opacity="0.2" d="M83.0695 544.749H73.7141C73.7351 526.79 80.8736 509.573 93.5646 496.874C106.255 484.175 123.461 477.032 141.408 477.011H154.91V486.372H141.415C125.948 486.39 111.118 492.545 100.18 503.489C89.2421 514.432 83.0884 529.271 83.0695 544.749Z" fill="#046E73"/>
<path opacity="0.2" d="M491.063 542.946H481.744C481.728 523.768 474.11 505.379 460.56 491.817C447.009 478.254 428.635 470.624 409.469 470.603H392.986V461.264H409.469C431.105 461.296 451.845 469.913 467.142 485.226C482.438 500.539 491.04 521.296 491.063 542.946Z" fill="#046468"/>
<path opacity="0.2" d="M128.986 542.946H119.63C119.642 533.811 123.273 525.055 129.729 518.595C136.184 512.136 144.936 508.502 154.064 508.491H160.438V517.852H154.064C147.416 517.862 141.043 520.509 136.342 525.212C131.641 529.916 128.996 536.294 128.986 542.946Z" fill="#046E73"/>
<path opacity="0.2" d="M439.749 563.363H83.917C82.6768 563.363 81.4866 562.87 80.6097 561.992C79.732 561.115 79.2393 559.924 79.2393 558.683C79.2393 557.441 79.732 556.251 80.6097 555.372C81.4866 554.495 82.6768 554.002 83.917 554.002H439.749C440.99 554.002 442.18 554.495 443.057 555.372C443.934 556.251 444.427 557.441 444.427 558.683C444.427 559.924 443.934 561.115 443.057 561.992C442.18 562.87 440.99 563.363 439.749 563.363Z" fill="#046E73"/>
<path opacity="0.2" d="M21.4258 563.363C21.1195 563.364 20.8139 563.332 20.5142 563.269C20.2148 563.21 19.9217 563.122 19.6387 563.008C19.3566 562.89 19.0854 562.747 18.8283 562.581C18.5693 562.409 18.327 562.213 18.1048 561.995C17.6694 561.56 17.3251 561.043 17.0918 560.474C16.9781 560.191 16.8909 559.898 16.8313 559.598C16.7063 558.994 16.7063 558.37 16.8313 557.767C16.8909 557.467 16.9781 557.174 17.0918 556.89C17.2102 556.608 17.3531 556.337 17.5187 556.08C17.8609 555.566 18.3011 555.126 18.8138 554.784C19.0709 554.618 19.3421 554.475 19.6242 554.356C19.9073 554.243 20.2004 554.155 20.4997 554.096C21.1036 553.972 21.7263 553.972 22.3303 554.096C22.6295 554.155 22.9226 554.243 23.2058 554.356C23.4878 554.475 23.759 554.618 24.0161 554.784C24.5289 555.126 24.969 555.566 25.3113 556.08C25.477 556.337 25.6198 556.608 25.7382 556.89C25.8522 557.174 25.9418 557.467 26.0059 557.767C26.1252 558.371 26.1252 558.994 26.0059 559.598C25.9418 559.897 25.8522 560.19 25.7382 560.474C25.6198 560.757 25.477 561.028 25.3113 561.285C25.1407 561.546 24.9443 561.788 24.7252 562.009C24.503 562.227 24.2608 562.423 24.0017 562.596C23.7445 562.761 23.4733 562.904 23.1913 563.023C22.9082 563.136 22.615 563.224 22.3158 563.283C22.0226 563.34 21.7244 563.367 21.4258 563.363Z" fill="#046E73"/>
<path opacity="0.2" d="M487.358 563.363H457.179C455.938 563.363 454.748 562.87 453.871 561.992C452.994 561.115 452.501 559.924 452.501 558.683C452.501 557.441 452.994 556.251 453.871 555.372C454.748 554.495 455.938 554.002 457.179 554.002H487.358C488.599 554.002 489.788 554.495 490.666 555.372C491.543 556.251 492.035 557.441 492.035 558.683C492.035 559.924 491.543 561.115 490.666 561.992C489.788 562.87 488.599 563.363 487.358 563.363Z" fill="#046E73"/>
<path opacity="0.2" d="M503.943 563.363C503.637 563.364 503.331 563.332 503.031 563.269C502.732 563.209 502.439 563.122 502.156 563.008C501.873 562.89 501.602 562.747 501.345 562.581C501.086 562.409 500.844 562.212 500.622 561.995C500.402 561.774 500.206 561.531 500.036 561.271C499.87 561.013 499.727 560.742 499.609 560.46C499.495 560.176 499.405 559.883 499.341 559.584C499.222 558.979 499.222 558.356 499.341 557.752C499.405 557.453 499.495 557.16 499.609 556.876C499.727 556.593 499.87 556.322 500.036 556.065C500.378 555.552 500.818 555.111 501.331 554.769C501.588 554.603 501.859 554.46 502.141 554.342C502.424 554.228 502.717 554.141 503.017 554.081C503.621 553.957 504.243 553.957 504.847 554.081C505.147 554.141 505.44 554.228 505.723 554.342C506.005 554.46 506.276 554.603 506.533 554.769C507.046 555.111 507.486 555.552 507.828 556.065C507.994 556.322 508.136 556.593 508.255 556.876C508.369 557.159 508.456 557.452 508.516 557.752C508.641 558.356 508.641 558.98 508.516 559.584C508.456 559.883 508.369 560.177 508.255 560.46C508.136 560.742 507.994 561.013 507.828 561.271C507.657 561.531 507.461 561.774 507.242 561.995C507.02 562.212 506.778 562.409 506.519 562.581C506.262 562.747 505.99 562.889 505.708 563.008C505.425 563.122 505.132 563.209 504.833 563.269C504.54 563.33 504.242 563.362 503.943 563.363Z" fill="#046E73"/>
<path d="M151.068 468.801C149.838 468.803 148.639 468.414 147.645 467.688C146.651 466.964 145.914 465.941 145.54 464.768C139.65 446.856 130.099 410.924 132.183 371.487C133.341 349.608 137.971 329.393 145.865 311.395C155.36 289.893 169.888 270.995 188.222 256.298L192.237 261.257C159.077 288.154 141.01 325.353 138.55 371.827C136.611 408.484 145.062 442.106 150.793 460.293C153.622 429.559 164.026 403.546 172.383 386.959C181.703 368.468 190.342 357.622 190.703 357.173L195.674 361.17C195.544 361.336 186.992 372.102 177.991 390C169.692 406.507 159.302 432.636 156.928 463.392C156.836 464.748 156.272 466.027 155.333 467.007C154.394 467.988 153.141 468.607 151.791 468.757C151.551 468.786 151.31 468.801 151.068 468.801Z" fill="#274B5B"/>
<path d="M262.619 6.87806C261.732 5.87416 260.641 5.07034 259.42 4.5198C258.199 3.96926 256.875 3.68457 255.535 3.68457C254.196 3.68457 252.872 3.96926 251.651 4.5198C250.429 5.07034 249.339 5.87416 248.452 6.87806C228.041 29.9955 170.533 104.344 170.533 208.26C170.533 309.976 192.58 355.653 201.175 369.59C203.013 372.566 207.014 374.484 211.377 374.484H299.7C304.085 374.484 308.079 372.58 309.902 369.59C318.498 355.653 340.566 309.976 340.566 208.26C340.566 104.344 283.037 29.9955 262.619 6.87806Z" fill="#03989E"/>
<path d="M256.1 92.8755H254.399V373.637H256.1V92.8755Z" fill="#274B5B"/>
<path opacity="0.2" d="M254.399 92.8755H252.698V373.637H254.399V92.8755Z" fill="#274B5B"/>
<path opacity="0.3" d="M257.798 92.8755H256.098V373.637H257.798V92.8755Z" fill="white"/>
<path d="M311.791 90.3197H197.471C204.441 73.5372 212.622 57.2837 221.948 41.6882C222.764 40.3271 223.572 38.9973 224.372 37.699C240.666 13.2927 253.147 0 253.147 0C253.147 0 270.513 18.4839 290.982 51.8967L291.278 52.389C298 63.5097 304.997 76.1943 311.791 90.3197Z" fill="#ECF2FA"/>
<path d="M310.937 89.089L304.686 88.1912C294.361 73.0812 265.802 42.2459 226.441 37.996C227.165 36.6348 230.059 33.8547 230.783 32.5587C236.434 23.2625 241.578 17.0143 245.782 11.063C246.9 9.46892 248.382 8.16347 250.104 7.25398C251.826 6.34455 253.739 5.85706 255.686 5.83162C257.632 5.80617 259.557 6.2435 261.302 7.10764C263.047 7.97175 264.562 9.23804 265.723 10.8023C274.606 22.6724 282.688 35.1215 289.918 48.0669C290.005 48.2262 290.945 48.3927 291.039 48.5592C297.153 59.6799 308.39 66.5435 310.937 89.089Z" fill="#8BBACC"/>
<path d="M214.67 79.4448C214.302 79.4441 213.94 79.3478 213.62 79.1654C213.3 78.9829 213.034 78.7208 212.845 78.4037C212.657 78.0873 212.555 77.7275 212.547 77.359C212.54 76.9905 212.628 76.6263 212.803 76.3027C214.873 72.4944 217.145 68.6644 219.409 64.9647C221.58 61.3447 223.809 57.6595 225.806 54.0105C226.087 53.538 226.541 53.1929 227.071 53.0477C227.601 52.9025 228.167 52.9683 228.65 53.2314C229.133 53.4945 229.495 53.9345 229.661 54.459C229.827 54.9835 229.783 55.552 229.539 56.045C227.506 59.7809 225.241 63.5312 223.027 67.1585C220.813 70.7857 218.541 74.6012 216.515 78.3299C216.335 78.6636 216.069 78.9424 215.745 79.1386C215.42 79.3348 215.049 79.4405 214.67 79.4448Z" fill="white"/>
<g opacity="0.4">
<path opacity="0.4" d="M276.755 167.289C279.49 162.858 281.429 159.1 281.725 159.23C282.022 159.361 280.452 163.357 277.674 167.853C274.895 172.349 272.037 175.549 271.813 175.368C271.589 175.187 274.041 171.734 276.755 167.289Z" fill="#426270"/>
<path opacity="0.4" d="M281.665 171.287C283.437 168.298 284.664 165.751 284.406 165.599C284.148 165.446 282.503 167.744 280.732 170.733C278.961 173.722 277.734 176.269 277.991 176.422C278.249 176.574 279.894 174.276 281.665 171.287Z" fill="#426270"/>
<path opacity="0.4" d="M277.833 170.235C281.827 171.85 285.162 172.965 285.068 173.261C284.974 173.558 281.451 172.892 277.414 171.242C273.377 169.591 270.344 167.621 270.489 167.39C270.634 167.158 273.832 168.635 277.833 170.235Z" fill="#426270"/>
<path opacity="0.4" d="M281.611 169.149C285.229 170.851 288.29 171.922 288.203 172.219C288.116 172.516 284.86 171.864 281.155 170.134C277.451 168.403 274.853 166.304 275.02 166.087C275.186 165.869 277.994 167.477 281.611 169.149Z" fill="#426270"/>
</g>
<path d="M228.142 376.613H212.636C208.252 376.613 204.258 374.702 202.434 371.712C193.846 357.738 171.799 311.952 171.799 209.991C171.799 110.143 224.618 37.5253 247.048 11.2656C226.955 35.0854 183.448 98.1462 183.448 197.516L208.953 161.707C208.425 163.097 156.916 313.024 228.142 376.613Z" fill="#3EE3EA"/>
<path d="M217.736 374.694H213.481C209.097 374.694 205.103 372.783 203.279 369.793C194.691 355.82 172.645 310.033 172.645 208.072C172.645 108.224 225.463 35.6065 247.85 9.36133C236.439 22.893 217.403 49.1816 203.135 87.5539C188.497 120.416 176.885 161.236 176.885 208.028C176.885 309.997 198.931 355.783 207.519 369.749C209.364 372.783 213.358 374.694 217.736 374.694Z" fill="white"/>
<path opacity="0.8" d="M280.346 374.484H295.852C300.237 374.484 304.231 372.58 306.054 369.597C314.642 355.667 336.689 310.011 336.689 208.339C336.689 108.796 283.87 36.3738 261.44 10.1865C281.533 33.9339 329.721 96.7992 329.721 195.901L307.646 160.193C308.145 161.583 351.579 311.076 280.346 374.484Z" fill="#05575A"/>
<g opacity="0.9">
<path opacity="0.9" d="M201.364 123.942C202.09 121.1 202.962 118.297 203.976 115.544C204.814 113.292 205.781 111.09 206.87 108.948C208.744 105.328 210.365 103.265 211.038 103.547C211.711 103.83 211.385 106.378 210.466 110.266C210.01 112.213 209.432 114.523 208.766 117.035L206.617 125.253L204.54 133.528C203.918 136.084 203.332 138.357 202.811 140.29C201.762 144.149 200.865 146.546 200.112 146.473C199.36 146.401 198.918 143.845 199.013 139.74C199.083 137.344 199.291 134.953 199.635 132.58C200.062 129.673 200.64 126.79 201.364 123.942Z" fill="white"/>
</g>
<g opacity="0.9">
<path opacity="0.9" d="M199.492 157.004C200.117 153.538 199.429 150.511 197.954 150.245C196.479 149.978 194.777 152.573 194.152 156.04C193.527 159.506 194.215 162.533 195.69 162.799C197.165 163.066 198.866 160.471 199.492 157.004Z" fill="white"/>
</g>
<g opacity="0.2">
<path opacity="0.2" d="M242.416 26.5857C245.94 24.0299 249.217 21.8072 251.62 20.2796C254.022 18.7519 255.57 17.8686 255.657 18.0062C255.744 18.1438 254.347 19.2153 252.039 20.9022L243.038 27.4183L234.059 34.0284C231.744 35.6937 230.282 36.6928 230.188 36.5842C230.094 36.4756 231.389 35.2592 233.589 33.4348C235.788 31.6103 238.892 29.1559 242.416 26.5857Z" fill="#426270"/>
<path opacity="0.2" d="M243.718 30.7271C251.468 27.7514 257.712 25.2536 257.835 25.536C257.893 25.6735 256.388 26.4772 253.935 27.6211C251.482 28.765 247.98 30.2493 244.109 31.7407C240.238 33.2322 236.649 34.4557 234.045 35.2449C231.44 36.0341 229.79 36.4395 229.747 36.3019C229.638 36.0123 235.976 33.7028 243.718 30.7271Z" fill="#426270"/>
</g>
<path d="M247.806 141.579C247.512 141.579 247.224 141.491 246.979 141.328C246.733 141.163 246.542 140.931 246.429 140.658C246.317 140.386 246.287 140.086 246.345 139.797C246.402 139.508 246.544 139.241 246.753 139.033C246.961 138.824 247.227 138.682 247.515 138.625C247.805 138.567 248.104 138.597 248.377 138.71C248.649 138.823 248.882 139.014 249.046 139.259C249.209 139.504 249.297 139.793 249.297 140.088C249.297 140.483 249.14 140.862 248.861 141.142C248.581 141.422 248.202 141.579 247.806 141.579ZM247.806 139.45C247.68 139.45 247.557 139.488 247.453 139.558C247.348 139.628 247.267 139.727 247.218 139.844C247.17 139.96 247.157 140.088 247.182 140.212C247.207 140.335 247.267 140.449 247.356 140.538C247.445 140.627 247.559 140.688 247.683 140.712C247.806 140.737 247.934 140.725 248.05 140.676C248.167 140.628 248.266 140.547 248.336 140.442C248.406 140.337 248.443 140.214 248.443 140.088C248.443 139.919 248.376 139.757 248.257 139.637C248.137 139.518 247.976 139.45 247.806 139.45Z" fill="#274B5B"/>
<path opacity="0.2" d="M247.808 142.854C247.261 142.854 246.727 142.692 246.272 142.387C245.818 142.083 245.463 141.652 245.254 141.146C245.045 140.641 244.99 140.085 245.097 139.549C245.204 139.012 245.467 138.519 245.853 138.132C246.241 137.746 246.733 137.482 247.269 137.375C247.805 137.269 248.361 137.324 248.866 137.533C249.371 137.742 249.803 138.097 250.106 138.552C250.41 139.006 250.572 139.541 250.572 140.088C250.572 140.821 250.281 141.525 249.763 142.044C249.244 142.563 248.541 142.854 247.808 142.854ZM247.808 139.024C247.598 139.024 247.392 139.086 247.217 139.203C247.042 139.32 246.906 139.486 246.825 139.68C246.745 139.875 246.724 140.089 246.765 140.296C246.806 140.502 246.907 140.692 247.056 140.84C247.205 140.989 247.395 141.091 247.601 141.132C247.807 141.173 248.02 141.152 248.215 141.071C248.41 140.991 248.575 140.854 248.693 140.68C248.809 140.504 248.871 140.299 248.871 140.088C248.873 139.947 248.847 139.807 248.795 139.676C248.743 139.546 248.664 139.426 248.565 139.326C248.466 139.226 248.348 139.146 248.219 139.092C248.088 139.037 247.949 139.009 247.808 139.009V139.024Z" fill="#274B5B"/>
<path d="M247.806 112.438C247.512 112.438 247.224 112.35 246.979 112.187C246.733 112.022 246.542 111.79 246.429 111.517C246.317 111.245 246.287 110.945 246.345 110.655C246.402 110.367 246.544 110.1 246.753 109.892C246.961 109.683 247.227 109.541 247.515 109.484C247.805 109.426 248.104 109.456 248.377 109.569C248.649 109.682 248.882 109.873 249.046 110.118C249.209 110.363 249.297 110.652 249.297 110.946C249.297 111.342 249.14 111.721 248.861 112.001C248.581 112.281 248.202 112.438 247.806 112.438ZM247.806 110.309C247.68 110.309 247.557 110.347 247.453 110.416C247.348 110.487 247.267 110.586 247.218 110.702C247.17 110.819 247.157 110.947 247.182 111.071C247.207 111.194 247.267 111.308 247.356 111.397C247.445 111.486 247.559 111.547 247.683 111.571C247.806 111.596 247.934 111.584 248.05 111.535C248.167 111.487 248.266 111.405 248.336 111.3C248.406 111.196 248.443 111.072 248.443 110.946C248.442 110.778 248.374 110.618 248.254 110.5C248.135 110.382 247.974 110.317 247.806 110.317V110.309Z" fill="#274B5B"/>
<path opacity="0.2" d="M247.808 113.719C247.261 113.719 246.727 113.557 246.272 113.253C245.818 112.949 245.463 112.518 245.254 112.012C245.045 111.507 244.99 110.951 245.097 110.414C245.204 109.878 245.467 109.385 245.853 108.998C246.241 108.612 246.733 108.348 247.269 108.241C247.805 108.134 248.361 108.189 248.866 108.399C249.371 108.608 249.803 108.963 250.106 109.417C250.41 109.872 250.572 110.406 250.572 110.954C250.572 111.687 250.281 112.391 249.763 112.909C249.244 113.428 248.541 113.719 247.808 113.719ZM247.808 109.889C247.598 109.889 247.392 109.952 247.217 110.069C247.042 110.186 246.906 110.352 246.825 110.546C246.745 110.741 246.724 110.955 246.765 111.162C246.806 111.368 246.907 111.558 247.056 111.706C247.205 111.855 247.395 111.956 247.601 111.998C247.807 112.038 248.02 112.017 248.215 111.937C248.41 111.857 248.575 111.72 248.693 111.545C248.809 111.37 248.871 111.164 248.871 110.954C248.871 110.671 248.76 110.401 248.56 110.201C248.361 110.002 248.09 109.889 247.808 109.889Z" fill="#274B5B"/>
<path d="M262.684 121.799C262.389 121.799 262.101 121.712 261.856 121.548C261.611 121.384 261.42 121.151 261.308 120.878C261.195 120.606 261.165 120.306 261.222 120.017C261.28 119.727 261.422 119.461 261.63 119.253C261.839 119.044 262.104 118.902 262.394 118.845C262.682 118.787 262.983 118.817 263.255 118.93C263.527 119.043 263.76 119.234 263.924 119.48C264.087 119.724 264.175 120.013 264.175 120.308C264.175 120.504 264.136 120.697 264.061 120.878C263.986 121.059 263.877 121.224 263.738 121.363C263.6 121.501 263.436 121.611 263.255 121.686C263.074 121.761 262.88 121.799 262.684 121.799ZM262.684 119.671C262.559 119.671 262.436 119.708 262.331 119.778C262.226 119.848 262.144 119.947 262.096 120.064C262.048 120.18 262.035 120.309 262.06 120.432C262.085 120.555 262.145 120.669 262.234 120.758C262.323 120.847 262.436 120.908 262.56 120.933C262.684 120.957 262.812 120.945 262.928 120.896C263.044 120.848 263.144 120.767 263.213 120.662C263.284 120.557 263.321 120.434 263.321 120.308C263.321 120.139 263.254 119.977 263.135 119.857C263.015 119.738 262.853 119.671 262.684 119.671Z" fill="#274B5B"/>
<path opacity="0.2" d="M262.683 123.081C262.137 123.081 261.602 122.919 261.148 122.614C260.693 122.31 260.339 121.879 260.13 121.374C259.921 120.868 259.866 120.312 259.972 119.776C260.079 119.239 260.342 118.746 260.729 118.36C261.115 117.973 261.608 117.709 262.144 117.602C262.68 117.496 263.236 117.551 263.741 117.76C264.246 117.969 264.678 118.324 264.981 118.779C265.285 119.233 265.447 119.768 265.447 120.315C265.447 121.048 265.156 121.752 264.637 122.271C264.119 122.79 263.416 123.081 262.683 123.081ZM262.683 119.251C262.473 119.251 262.267 119.313 262.092 119.43C261.918 119.547 261.781 119.713 261.701 119.907C261.62 120.102 261.599 120.316 261.64 120.523C261.681 120.729 261.782 120.919 261.931 121.067C262.08 121.216 262.269 121.318 262.475 121.359C262.682 121.4 262.896 121.379 263.091 121.298C263.284 121.218 263.451 121.081 263.567 120.907C263.685 120.731 263.747 120.526 263.747 120.315C263.747 120.033 263.635 119.762 263.436 119.563C263.236 119.363 262.965 119.251 262.683 119.251Z" fill="#274B5B"/>
<path d="M262.684 227.721C262.389 227.721 262.101 227.634 261.856 227.47C261.611 227.306 261.42 227.073 261.308 226.8C261.195 226.528 261.165 226.228 261.222 225.939C261.28 225.65 261.422 225.383 261.63 225.175C261.839 224.966 262.104 224.824 262.394 224.767C262.682 224.709 262.983 224.739 263.255 224.852C263.527 224.965 263.76 225.156 263.924 225.401C264.087 225.646 264.175 225.935 264.175 226.23C264.175 226.625 264.018 227.004 263.738 227.285C263.459 227.564 263.08 227.721 262.684 227.721ZM262.684 225.593C262.559 225.593 262.436 225.63 262.331 225.7C262.226 225.77 262.144 225.869 262.096 225.986C262.048 226.102 262.035 226.23 262.06 226.354C262.085 226.477 262.145 226.591 262.234 226.68C262.323 226.769 262.436 226.83 262.56 226.854C262.684 226.879 262.812 226.867 262.928 226.818C263.044 226.77 263.144 226.689 263.213 226.584C263.284 226.479 263.321 226.356 263.321 226.23C263.319 226.062 263.251 225.902 263.132 225.784C263.013 225.666 262.852 225.6 262.684 225.6V225.593Z" fill="#274B5B"/>
<path opacity="0.2" d="M262.683 229.003C262.137 229.003 261.602 228.84 261.148 228.536C260.693 228.233 260.339 227.801 260.13 227.295C259.921 226.79 259.866 226.234 259.972 225.698C260.079 225.161 260.342 224.668 260.729 224.281C261.115 223.895 261.608 223.631 262.144 223.524C262.68 223.418 263.236 223.473 263.741 223.682C264.246 223.891 264.678 224.246 264.981 224.701C265.285 225.155 265.447 225.69 265.447 226.237C265.447 226.97 265.156 227.674 264.637 228.192C264.119 228.712 263.416 229.003 262.683 229.003ZM262.683 225.173C262.473 225.173 262.267 225.235 262.092 225.352C261.918 225.469 261.781 225.635 261.701 225.829C261.62 226.024 261.599 226.238 261.64 226.445C261.681 226.651 261.782 226.841 261.931 226.989C262.08 227.138 262.269 227.24 262.475 227.281C262.682 227.322 262.896 227.301 263.091 227.22C263.284 227.14 263.451 227.003 263.567 226.828C263.685 226.653 263.747 226.448 263.747 226.237C263.747 226.096 263.721 225.957 263.668 225.827C263.615 225.698 263.537 225.58 263.438 225.48C263.339 225.38 263.221 225.301 263.092 225.247C262.962 225.193 262.824 225.165 262.683 225.165V225.173Z" fill="#274B5B"/>
<path d="M263.146 249.42C262.85 249.42 262.562 249.332 262.317 249.169C262.072 249.004 261.881 248.772 261.768 248.499C261.655 248.227 261.626 247.927 261.683 247.637C261.741 247.348 261.883 247.082 262.091 246.874C262.3 246.665 262.565 246.523 262.855 246.466C263.143 246.408 263.443 246.438 263.716 246.551C263.988 246.664 264.221 246.855 264.384 247.1C264.549 247.345 264.635 247.634 264.635 247.928C264.635 248.324 264.478 248.703 264.199 248.983C263.92 249.263 263.541 249.42 263.146 249.42ZM263.146 247.291C263.019 247.291 262.896 247.329 262.792 247.398C262.687 247.469 262.605 247.568 262.557 247.684C262.509 247.801 262.496 247.929 262.52 248.053C262.545 248.176 262.606 248.29 262.695 248.379C262.784 248.468 262.897 248.529 263.021 248.553C263.145 248.578 263.272 248.566 263.389 248.517C263.505 248.469 263.604 248.387 263.675 248.282C263.745 248.177 263.782 248.054 263.782 247.928C263.782 247.76 263.715 247.598 263.596 247.478C263.476 247.359 263.314 247.291 263.146 247.291Z" fill="#274B5B"/>
<path opacity="0.2" d="M263.147 250.694C262.6 250.694 262.066 250.532 261.611 250.228C261.157 249.924 260.803 249.492 260.593 248.987C260.384 248.481 260.329 247.925 260.436 247.389C260.542 246.852 260.806 246.359 261.193 245.973C261.579 245.586 262.071 245.323 262.607 245.215C263.143 245.109 263.7 245.164 264.205 245.373C264.71 245.583 265.141 245.937 265.445 246.392C265.749 246.847 265.911 247.381 265.911 247.928C265.911 248.662 265.619 249.365 265.101 249.884C264.582 250.403 263.88 250.694 263.147 250.694ZM263.147 246.864C262.936 246.864 262.731 246.926 262.556 247.044C262.381 247.16 262.245 247.327 262.164 247.521C262.083 247.715 262.062 247.93 262.104 248.136C262.145 248.342 262.246 248.532 262.394 248.681C262.544 248.83 262.733 248.931 262.939 248.972C263.146 249.013 263.36 248.992 263.554 248.912C263.748 248.831 263.914 248.694 264.031 248.52C264.148 248.345 264.211 248.139 264.211 247.928C264.205 247.65 264.09 247.385 263.891 247.19C263.693 246.995 263.425 246.886 263.147 246.886V246.864Z" fill="#274B5B"/>
<path d="M246.504 221.77C246.209 221.77 245.921 221.682 245.676 221.519C245.43 221.354 245.239 221.122 245.126 220.849C245.014 220.577 244.985 220.277 245.042 219.987C245.1 219.698 245.241 219.432 245.45 219.224C245.658 219.015 245.924 218.873 246.213 218.816C246.502 218.758 246.801 218.788 247.074 218.901C247.346 219.014 247.579 219.205 247.743 219.449C247.907 219.695 247.994 219.984 247.994 220.278C247.994 220.674 247.837 221.053 247.557 221.333C247.278 221.613 246.899 221.77 246.504 221.77ZM246.504 219.641C246.377 219.641 246.254 219.679 246.15 219.749C246.045 219.819 245.964 219.918 245.915 220.034C245.867 220.151 245.854 220.279 245.879 220.403C245.903 220.526 245.964 220.64 246.053 220.729C246.142 220.818 246.256 220.879 246.38 220.903C246.503 220.928 246.631 220.916 246.747 220.867C246.864 220.819 246.963 220.738 247.033 220.633C247.103 220.528 247.141 220.404 247.141 220.278C247.141 220.11 247.073 219.948 246.954 219.828C246.835 219.709 246.673 219.641 246.504 219.641Z" fill="#274B5B"/>
<path opacity="0.2" d="M246.505 223.044C245.958 223.044 245.424 222.882 244.969 222.578C244.515 222.274 244.161 221.842 243.951 221.337C243.742 220.832 243.688 220.276 243.794 219.739C243.901 219.203 244.164 218.71 244.551 218.323C244.937 217.936 245.429 217.673 245.966 217.566C246.502 217.459 247.058 217.514 247.563 217.723C248.068 217.933 248.499 218.287 248.803 218.742C249.107 219.197 249.269 219.731 249.269 220.278C249.269 221.012 248.978 221.716 248.46 222.234C247.941 222.752 247.238 223.044 246.505 223.044ZM246.505 219.214C246.295 219.214 246.089 219.276 245.914 219.394C245.739 219.51 245.603 219.677 245.523 219.871C245.442 220.066 245.421 220.28 245.462 220.486C245.503 220.693 245.605 220.882 245.753 221.031C245.902 221.18 246.091 221.281 246.298 221.322C246.504 221.363 246.718 221.342 246.912 221.262C247.107 221.181 247.272 221.044 247.39 220.87C247.506 220.695 247.569 220.489 247.569 220.278C247.569 219.996 247.457 219.725 247.257 219.525C247.057 219.326 246.788 219.214 246.505 219.214Z" fill="#274B5B"/>
<path d="M246.504 243.461C246.209 243.461 245.921 243.374 245.676 243.21C245.43 243.046 245.239 242.813 245.126 242.54C245.014 242.268 244.985 241.968 245.042 241.679C245.1 241.39 245.241 241.124 245.45 240.915C245.658 240.706 245.924 240.565 246.213 240.507C246.502 240.449 246.801 240.479 247.074 240.592C247.346 240.705 247.579 240.896 247.743 241.142C247.907 241.386 247.994 241.675 247.994 241.97C247.994 242.365 247.837 242.745 247.557 243.025C247.278 243.304 246.899 243.461 246.504 243.461ZM246.504 241.333C246.377 241.333 246.254 241.37 246.15 241.44C246.045 241.51 245.964 241.609 245.915 241.726C245.867 241.842 245.854 241.971 245.879 242.094C245.903 242.217 245.964 242.331 246.053 242.42C246.142 242.509 246.256 242.57 246.38 242.595C246.503 242.619 246.631 242.607 246.747 242.558C246.864 242.51 246.963 242.429 247.033 242.324C247.103 242.219 247.141 242.096 247.141 241.97C247.139 241.802 247.071 241.642 246.951 241.524C246.832 241.406 246.671 241.34 246.504 241.34V241.333Z" fill="#274B5B"/>
<path opacity="0.2" d="M246.505 244.714C245.958 244.714 245.424 244.551 244.969 244.247C244.515 243.943 244.161 243.512 243.951 243.006C243.742 242.501 243.688 241.945 243.794 241.408C243.901 240.872 244.164 240.379 244.551 239.992C244.937 239.606 245.429 239.342 245.966 239.235C246.502 239.129 247.058 239.184 247.563 239.393C248.068 239.602 248.499 239.956 248.803 240.412C249.107 240.866 249.269 241.4 249.269 241.948C249.269 242.681 248.978 243.385 248.46 243.903C247.941 244.422 247.238 244.714 246.505 244.714ZM246.505 240.884C246.295 240.884 246.089 240.946 245.914 241.063C245.739 241.18 245.603 241.346 245.523 241.54C245.442 241.735 245.421 241.949 245.462 242.156C245.503 242.362 245.605 242.552 245.753 242.7C245.902 242.849 246.091 242.951 246.298 242.992C246.504 243.032 246.718 243.011 246.912 242.931C247.107 242.851 247.272 242.714 247.39 242.539C247.506 242.364 247.569 242.159 247.569 241.948C247.561 241.671 247.446 241.407 247.247 241.214C247.049 241.02 246.782 240.913 246.505 240.913V240.884Z" fill="#274B5B"/>
<path d="M247.806 170.721C247.512 170.721 247.224 170.633 246.979 170.469C246.733 170.305 246.542 170.073 246.429 169.8C246.317 169.527 246.287 169.228 246.345 168.938C246.402 168.649 246.544 168.383 246.753 168.174C246.961 167.966 247.227 167.824 247.515 167.767C247.805 167.709 248.104 167.738 248.377 167.851C248.649 167.964 248.882 168.155 249.046 168.401C249.209 168.646 249.297 168.934 249.297 169.229C249.297 169.624 249.14 170.004 248.861 170.284C248.581 170.564 248.202 170.721 247.806 170.721ZM247.806 168.592C247.68 168.592 247.557 168.63 247.453 168.699C247.348 168.769 247.267 168.869 247.218 168.985C247.17 169.102 247.157 169.23 247.182 169.354C247.207 169.477 247.267 169.59 247.356 169.679C247.445 169.769 247.559 169.829 247.683 169.854C247.806 169.879 247.934 169.866 248.05 169.818C248.167 169.769 248.266 169.688 248.336 169.583C248.406 169.478 248.443 169.355 248.443 169.229C248.443 169.06 248.376 168.898 248.257 168.779C248.137 168.659 247.976 168.592 247.806 168.592Z" fill="#274B5B"/>
<path opacity="0.2" d="M247.808 171.995C247.261 171.995 246.727 171.833 246.272 171.529C245.818 171.224 245.463 170.793 245.254 170.288C245.045 169.782 244.99 169.226 245.097 168.69C245.204 168.153 245.467 167.66 245.853 167.274C246.241 166.887 246.733 166.623 247.269 166.516C247.805 166.41 248.361 166.465 248.866 166.674C249.371 166.883 249.803 167.238 250.106 167.693C250.41 168.147 250.572 168.682 250.572 169.229C250.572 169.963 250.281 170.666 249.763 171.185C249.244 171.704 248.541 171.995 247.808 171.995ZM247.808 168.165C247.598 168.165 247.392 168.227 247.217 168.344C247.042 168.461 246.906 168.627 246.825 168.821C246.745 169.016 246.724 169.231 246.765 169.437C246.806 169.643 246.907 169.833 247.056 169.981C247.205 170.131 247.395 170.232 247.601 170.273C247.807 170.314 248.02 170.293 248.215 170.212C248.41 170.132 248.575 169.995 248.693 169.821C248.809 169.645 248.871 169.44 248.871 169.229C248.871 168.947 248.76 168.676 248.56 168.477C248.361 168.277 248.09 168.165 247.808 168.165Z" fill="#274B5B"/>
<path d="M281.813 81.8124C281.518 81.8124 281.23 81.7248 280.985 81.5612C280.74 81.3968 280.549 81.1644 280.436 80.8915C280.323 80.6193 280.293 80.3195 280.351 80.0299C280.409 79.741 280.551 79.4746 280.759 79.2661C280.968 79.0576 281.233 78.9157 281.522 78.8585C281.811 78.8005 282.111 78.8302 282.384 78.9432C282.656 79.0561 282.889 79.2473 283.052 79.4927C283.216 79.7374 283.303 80.0263 283.303 80.321C283.303 80.5172 283.265 80.7105 283.19 80.8915C283.115 81.0725 283.005 81.2368 282.867 81.3758C282.729 81.5141 282.565 81.6242 282.384 81.6987C282.203 81.774 282.009 81.8124 281.813 81.8124ZM281.813 79.6838C281.687 79.6838 281.564 79.7215 281.459 79.791C281.355 79.8612 281.273 79.9604 281.225 80.077C281.177 80.1935 281.164 80.3217 281.189 80.4455C281.213 80.5686 281.274 80.6822 281.363 80.7713C281.452 80.8603 281.565 80.9212 281.689 80.9458C281.812 80.9704 281.94 80.9581 282.057 80.9096C282.173 80.8611 282.272 80.78 282.343 80.675C282.413 80.57 282.45 80.4469 282.45 80.321C282.45 80.1523 282.383 79.9901 282.264 79.8706C282.144 79.7512 281.982 79.6838 281.813 79.6838Z" fill="#274B5B"/>
<path opacity="0.2" d="M281.815 83.0866C281.268 83.0866 280.734 82.9244 280.279 82.6203C279.825 82.3162 279.47 81.8847 279.261 81.3794C279.052 80.874 278.997 80.318 279.104 79.7815C279.21 79.245 279.474 78.752 279.86 78.3654C280.247 77.9787 280.739 77.7152 281.275 77.6081C281.812 77.5016 282.367 77.5567 282.872 77.7659C283.377 77.9751 283.809 78.3299 284.113 78.7846C284.416 79.2392 284.578 79.7736 284.578 80.3209C284.578 81.0543 284.288 81.758 283.77 82.2764C283.251 82.7955 282.548 83.0866 281.815 83.0866ZM281.815 79.2566C281.605 79.2566 281.399 79.3189 281.224 79.4362C281.049 79.5527 280.913 79.7192 280.832 79.9133C280.752 80.108 280.731 80.3223 280.772 80.5287C280.812 80.735 280.914 80.9247 281.063 81.0731C281.212 81.2223 281.401 81.3236 281.608 81.3649C281.814 81.4055 282.027 81.3845 282.222 81.3041C282.417 81.2237 282.582 81.0869 282.699 80.9124C282.816 80.7372 282.878 80.5316 282.878 80.3209C282.878 80.0385 282.767 79.7678 282.567 79.5687C282.367 79.3688 282.097 79.2566 281.815 79.2566Z" fill="#274B5B"/>
<path d="M228.251 81.8124C227.957 81.8124 227.668 81.7248 227.423 81.5612C227.178 81.3968 226.987 81.1644 226.874 80.8915C226.761 80.6193 226.732 80.3195 226.79 80.0299C226.847 79.741 226.989 79.4746 227.197 79.2661C227.405 79.0576 227.671 78.9157 227.96 78.8585C228.25 78.8005 228.549 78.8302 228.821 78.9432C229.094 79.0561 229.326 79.2473 229.491 79.4927C229.654 79.7374 229.742 80.0263 229.742 80.321C229.742 80.5172 229.703 80.7105 229.628 80.8915C229.554 81.0725 229.444 81.2368 229.305 81.3758C229.166 81.5141 229.002 81.6242 228.821 81.6987C228.64 81.774 228.447 81.8124 228.251 81.8124ZM228.251 79.6838C228.125 79.6838 228.002 79.7215 227.897 79.791C227.792 79.8612 227.711 79.9604 227.663 80.077C227.614 80.1935 227.602 80.3217 227.627 80.4455C227.651 80.5686 227.712 80.6822 227.801 80.7713C227.89 80.8603 228.004 80.9212 228.127 80.9458C228.25 80.9704 228.379 80.9581 228.495 80.9096C228.611 80.8611 228.711 80.78 228.781 80.675C228.85 80.57 228.888 80.4469 228.888 80.321C228.888 80.1523 228.821 79.9901 228.701 79.8706C228.582 79.7512 228.42 79.6838 228.251 79.6838Z" fill="#274B5B"/>
<path opacity="0.2" d="M228.25 83.0866C227.703 83.0866 227.169 82.9244 226.714 82.6203C226.26 82.3162 225.905 81.8847 225.696 81.3794C225.487 80.874 225.432 80.318 225.539 79.7815C225.646 79.245 225.909 78.752 226.295 78.3654C226.682 77.9787 227.174 77.7152 227.711 77.6081C228.247 77.5016 228.802 77.5567 229.307 77.7659C229.812 77.9751 230.244 78.3299 230.548 78.7846C230.851 79.2392 231.014 79.7736 231.014 80.3209C231.014 81.0543 230.723 81.758 230.204 82.2764C229.686 82.7955 228.983 83.0866 228.25 83.0866ZM228.25 79.2566C228.039 79.2566 227.834 79.3189 227.659 79.4362C227.484 79.5527 227.347 79.7192 227.267 79.9133C227.187 80.108 227.166 80.3223 227.206 80.5287C227.247 80.735 227.349 80.9247 227.498 81.0731C227.646 81.2223 227.836 81.3236 228.042 81.3649C228.249 81.4055 228.462 81.3845 228.657 81.3041C228.851 81.2237 229.017 81.0869 229.134 80.9124C229.251 80.7372 229.313 80.5316 229.313 80.3209C229.313 80.0385 229.201 79.7678 229.002 79.5687C228.802 79.3688 228.532 79.2566 228.25 79.2566Z" fill="#274B5B"/>
<path d="M255.036 81.8124C254.742 81.8124 254.454 81.7248 254.208 81.5612C253.963 81.3968 253.772 81.1644 253.659 80.8915C253.546 80.6193 253.517 80.3195 253.574 80.0299C253.632 79.741 253.774 79.4746 253.983 79.2661C254.191 79.0576 254.456 78.9157 254.746 78.8585C255.035 78.8005 255.334 78.8302 255.607 78.9432C255.879 79.0561 256.112 79.2473 256.275 79.4927C256.44 79.7374 256.527 80.0263 256.527 80.321C256.527 80.5172 256.488 80.7105 256.414 80.8915C256.338 81.0725 256.228 81.2368 256.09 81.3758C255.952 81.5141 255.788 81.6242 255.607 81.6987C255.426 81.774 255.232 81.8124 255.036 81.8124ZM255.036 79.6838C254.91 79.6838 254.787 79.7215 254.683 79.791C254.578 79.8612 254.496 79.9604 254.448 80.077C254.4 80.1935 254.387 80.3217 254.412 80.4455C254.436 80.5686 254.497 80.6822 254.586 80.7713C254.675 80.8603 254.789 80.9212 254.912 80.9458C255.035 80.9704 255.163 80.9581 255.28 80.9096C255.396 80.8611 255.495 80.78 255.566 80.675C255.636 80.57 255.673 80.4469 255.673 80.321C255.673 80.1523 255.606 79.9901 255.487 79.8706C255.367 79.7512 255.205 79.6838 255.036 79.6838Z" fill="#274B5B"/>
<path opacity="0.2" d="M255.035 83.0866C254.488 83.0866 253.954 82.9244 253.499 82.6203C253.045 82.3162 252.691 81.8847 252.482 81.3794C252.272 80.874 252.218 80.318 252.324 79.7815C252.431 79.245 252.694 78.752 253.081 78.3654C253.467 77.9787 253.96 77.7152 254.496 77.6081C255.032 77.5016 255.588 77.5567 256.093 77.7659C256.598 77.9751 257.029 78.3299 257.333 78.7846C257.637 79.2392 257.799 79.7736 257.799 80.3209C257.799 81.0543 257.508 81.758 256.99 82.2764C256.472 82.7955 255.768 83.0866 255.035 83.0866ZM255.035 79.2566C254.825 79.2566 254.619 79.3189 254.444 79.4362C254.269 79.5527 254.133 79.7192 254.053 79.9133C253.972 80.108 253.951 80.3223 253.992 80.5287C254.033 80.735 254.135 80.9247 254.283 81.0731C254.432 81.2223 254.622 81.3236 254.828 81.3649C255.034 81.4055 255.248 81.3845 255.442 81.3041C255.637 81.2237 255.802 81.0869 255.92 80.9124C256.037 80.7372 256.099 80.5316 256.099 80.3209C256.099 80.0385 255.987 79.7678 255.787 79.5687C255.588 79.3688 255.318 79.2566 255.035 79.2566Z" fill="#274B5B"/>
<path d="M247.806 275.795C247.512 275.795 247.224 275.708 246.979 275.544C246.733 275.38 246.542 275.147 246.429 274.874C246.317 274.602 246.287 274.302 246.345 274.013C246.402 273.724 246.544 273.458 246.753 273.249C246.961 273.04 247.227 272.899 247.515 272.841C247.805 272.783 248.104 272.813 248.377 272.926C248.649 273.039 248.882 273.23 249.046 273.476C249.209 273.72 249.297 274.009 249.297 274.304C249.297 274.699 249.14 275.079 248.861 275.359C248.581 275.638 248.202 275.795 247.806 275.795ZM247.806 273.667C247.68 273.667 247.557 273.704 247.453 273.774C247.348 273.844 247.267 273.943 247.218 274.06C247.17 274.176 247.157 274.305 247.182 274.428C247.207 274.551 247.267 274.665 247.356 274.754C247.445 274.843 247.559 274.904 247.683 274.929C247.806 274.953 247.934 274.941 248.05 274.892C248.167 274.844 248.266 274.763 248.336 274.658C248.406 274.553 248.443 274.43 248.443 274.304C248.442 274.136 248.374 273.976 248.254 273.858C248.135 273.74 247.974 273.674 247.806 273.674V273.667Z" fill="#274B5B"/>
<path opacity="0.2" d="M247.808 277.07C247.261 277.07 246.727 276.907 246.272 276.603C245.818 276.299 245.463 275.868 245.254 275.362C245.045 274.857 244.99 274.301 245.097 273.764C245.204 273.228 245.467 272.735 245.853 272.348C246.241 271.962 246.733 271.698 247.269 271.591C247.805 271.485 248.361 271.54 248.866 271.749C249.371 271.958 249.803 272.313 250.106 272.767C250.41 273.222 250.572 273.757 250.572 274.304C250.572 275.037 250.281 275.741 249.763 276.259C249.244 276.779 248.541 277.07 247.808 277.07ZM247.808 273.24C247.598 273.24 247.392 273.302 247.217 273.419C247.042 273.536 246.906 273.702 246.825 273.897C246.745 274.091 246.724 274.305 246.765 274.512C246.806 274.718 246.907 274.908 247.056 275.056C247.205 275.205 247.395 275.307 247.601 275.348C247.807 275.389 248.02 275.367 248.215 275.287C248.41 275.207 248.575 275.07 248.693 274.895C248.809 274.72 248.871 274.515 248.871 274.304C248.871 274.021 248.76 273.751 248.56 273.552C248.361 273.352 248.09 273.24 247.808 273.24Z" fill="#274B5B"/>
<path d="M247.806 306.978C247.512 306.978 247.224 306.89 246.979 306.727C246.733 306.562 246.542 306.33 246.429 306.057C246.317 305.785 246.287 305.485 246.345 305.195C246.402 304.907 246.544 304.64 246.753 304.432C246.961 304.223 247.227 304.081 247.515 304.024C247.805 303.966 248.104 303.996 248.377 304.109C248.649 304.222 248.882 304.413 249.046 304.658C249.209 304.903 249.297 305.192 249.297 305.486C249.297 305.882 249.14 306.261 248.861 306.541C248.581 306.821 248.202 306.978 247.806 306.978ZM247.806 304.849C247.68 304.849 247.557 304.887 247.453 304.957C247.348 305.027 247.267 305.126 247.218 305.242C247.17 305.359 247.157 305.487 247.182 305.611C247.207 305.734 247.267 305.848 247.356 305.937C247.445 306.026 247.559 306.087 247.683 306.111C247.806 306.136 247.934 306.124 248.05 306.075C248.167 306.027 248.266 305.945 248.336 305.841C248.406 305.736 248.443 305.612 248.443 305.486C248.439 305.32 248.371 305.161 248.252 305.046C248.133 304.929 247.973 304.864 247.806 304.864V304.849Z" fill="#274B5B"/>
<path opacity="0.2" d="M247.808 308.267C247.261 308.267 246.727 308.105 246.272 307.8C245.818 307.496 245.463 307.065 245.254 306.56C245.045 306.054 244.99 305.498 245.097 304.962C245.204 304.425 245.467 303.932 245.853 303.546C246.241 303.159 246.733 302.895 247.269 302.788C247.805 302.682 248.361 302.737 248.866 302.946C249.371 303.155 249.803 303.51 250.106 303.965C250.41 304.419 250.572 304.954 250.572 305.501C250.572 306.234 250.281 306.938 249.763 307.457C249.244 307.976 248.541 308.267 247.808 308.267ZM247.808 304.437C247.598 304.437 247.392 304.499 247.217 304.616C247.042 304.733 246.906 304.899 246.825 305.093C246.745 305.288 246.724 305.503 246.765 305.709C246.806 305.915 246.907 306.105 247.056 306.253C247.205 306.402 247.395 306.504 247.601 306.545C247.807 306.586 248.02 306.565 248.215 306.484C248.41 306.404 248.575 306.267 248.693 306.093C248.809 305.917 248.871 305.712 248.871 305.501C248.871 305.219 248.76 304.948 248.56 304.749C248.361 304.549 248.09 304.437 247.808 304.437Z" fill="#274B5B"/>
<path d="M247.806 338.19C247.512 338.19 247.224 338.102 246.979 337.939C246.733 337.774 246.542 337.542 246.429 337.269C246.317 336.997 246.287 336.697 246.345 336.407C246.402 336.118 246.544 335.852 246.753 335.644C246.961 335.435 247.227 335.293 247.515 335.236C247.805 335.178 248.104 335.208 248.377 335.321C248.649 335.434 248.882 335.625 249.046 335.87C249.209 336.115 249.297 336.404 249.297 336.698C249.297 337.094 249.14 337.473 248.861 337.753C248.581 338.033 248.202 338.19 247.806 338.19ZM247.806 336.061C247.68 336.061 247.557 336.099 247.453 336.168C247.348 336.239 247.267 336.338 247.218 336.454C247.17 336.571 247.157 336.699 247.182 336.823C247.207 336.946 247.267 337.06 247.356 337.149C247.445 337.238 247.559 337.299 247.683 337.323C247.806 337.348 247.934 337.335 248.05 337.287C248.167 337.238 248.266 337.157 248.336 337.052C248.406 336.947 248.443 336.824 248.443 336.698C248.443 336.53 248.376 336.368 248.257 336.248C248.137 336.129 247.976 336.061 247.806 336.061Z" fill="#274B5B"/>
<path opacity="0.2" d="M247.808 339.465C247.261 339.465 246.727 339.302 246.272 338.998C245.818 338.694 245.463 338.263 245.254 337.757C245.045 337.252 244.99 336.696 245.097 336.159C245.204 335.623 245.467 335.13 245.853 334.743C246.241 334.357 246.733 334.093 247.269 333.986C247.805 333.88 248.361 333.935 248.866 334.144C249.371 334.353 249.803 334.708 250.106 335.162C250.41 335.617 250.572 336.151 250.572 336.699C250.572 337.432 250.281 338.136 249.763 338.654C249.244 339.173 248.541 339.465 247.808 339.465ZM247.808 335.635C247.598 335.635 247.392 335.697 247.217 335.814C247.042 335.931 246.906 336.097 246.825 336.291C246.745 336.486 246.724 336.7 246.765 336.907C246.806 337.113 246.907 337.303 247.056 337.451C247.205 337.6 247.395 337.702 247.601 337.743C247.807 337.783 248.02 337.762 248.215 337.682C248.41 337.602 248.575 337.465 248.693 337.29C248.809 337.115 248.871 336.909 248.871 336.699C248.871 336.416 248.76 336.146 248.56 335.947C248.361 335.747 248.09 335.635 247.808 335.635Z" fill="#274B5B"/>
<path d="M247.806 369.38C247.512 369.38 247.224 369.293 246.979 369.129C246.733 368.965 246.542 368.732 246.429 368.459C246.317 368.187 246.287 367.887 246.345 367.598C246.402 367.309 246.544 367.043 246.753 366.834C246.961 366.625 247.227 366.484 247.515 366.426C247.805 366.368 248.104 366.398 248.377 366.511C248.649 366.624 248.882 366.815 249.046 367.061C249.209 367.305 249.297 367.594 249.297 367.889C249.297 368.284 249.14 368.664 248.861 368.944C248.581 369.223 248.202 369.38 247.806 369.38ZM247.806 367.252C247.68 367.252 247.557 367.289 247.453 367.359C247.348 367.429 247.267 367.529 247.218 367.645C247.17 367.761 247.157 367.89 247.182 368.013C247.207 368.136 247.267 368.25 247.356 368.339C247.445 368.428 247.559 368.489 247.683 368.514C247.806 368.538 247.934 368.526 248.05 368.477C248.167 368.429 248.266 368.348 248.336 368.243C248.406 368.138 248.443 368.015 248.443 367.889C248.443 367.72 248.376 367.558 248.257 367.439C248.137 367.319 247.976 367.252 247.806 367.252Z" fill="#274B5B"/>
<path opacity="0.2" d="M247.808 370.691C247.261 370.691 246.727 370.528 246.272 370.224C245.818 369.92 245.463 369.489 245.254 368.983C245.045 368.478 244.99 367.922 245.097 367.386C245.204 366.849 245.467 366.356 245.853 365.969C246.241 365.583 246.733 365.319 247.269 365.212C247.805 365.106 248.361 365.161 248.866 365.37C249.371 365.579 249.803 365.933 250.106 366.389C250.41 366.843 250.572 367.378 250.572 367.925C250.572 368.658 250.281 369.362 249.763 369.88C249.244 370.4 248.541 370.691 247.808 370.691ZM247.808 366.861C247.598 366.861 247.392 366.923 247.217 367.04C247.042 367.157 246.906 367.323 246.825 367.517C246.745 367.712 246.724 367.926 246.765 368.133C246.806 368.339 246.907 368.529 247.056 368.677C247.205 368.826 247.395 368.928 247.601 368.969C247.807 369.009 248.02 368.988 248.215 368.908C248.41 368.828 248.575 368.691 248.693 368.516C248.809 368.341 248.871 368.136 248.871 367.925C248.876 367.783 248.851 367.641 248.799 367.509C248.748 367.376 248.669 367.255 248.57 367.154C248.471 367.052 248.353 366.971 248.222 366.916C248.091 366.86 247.95 366.832 247.808 366.832V366.861Z" fill="#274B5B"/>
<path opacity="0.6" d="M257.583 213.683C277.423 213.683 293.507 197.589 293.507 177.736C293.507 157.883 277.423 141.789 257.583 141.789C237.743 141.789 221.659 157.883 221.659 177.736C221.659 197.589 237.743 213.683 257.583 213.683Z" fill="#046468"/>
<path d="M258.01 200.499C277.85 200.499 293.934 184.405 293.934 164.552C293.934 144.699 277.85 128.605 258.01 128.605C238.169 128.605 222.086 144.699 222.086 164.552C222.086 184.405 238.169 200.499 258.01 200.499Z" fill="#94E0F7"/>
<path opacity="0.2" d="M257.584 198.377C251.403 198.377 245.362 196.544 240.222 193.107C235.083 189.671 231.078 184.788 228.713 179.074C226.347 173.36 225.729 167.073 226.934 161.007C228.14 154.942 231.116 149.37 235.487 144.997C239.857 140.624 245.425 137.645 251.487 136.439C257.549 135.232 263.832 135.852 269.542 138.218C275.253 140.585 280.133 144.593 283.567 149.735C287.001 154.877 288.834 160.923 288.834 167.108C288.826 175.398 285.531 183.348 279.672 189.21C273.813 195.073 265.87 198.37 257.584 198.377ZM257.584 137.974C251.823 137.974 246.193 139.683 241.404 142.885C236.615 146.087 232.882 150.638 230.678 155.963C228.474 161.288 227.897 167.148 229.021 172.8C230.145 178.453 232.918 183.645 236.991 187.721C241.064 191.796 246.253 194.572 251.902 195.697C257.551 196.821 263.407 196.244 268.728 194.038C274.05 191.833 278.598 188.097 281.799 183.305C284.998 178.513 286.706 172.879 286.706 167.115C286.701 159.388 283.631 151.977 278.171 146.513C272.711 141.048 265.307 137.974 257.584 137.967V137.974Z" fill="#274B5B"/>
<path d="M270.026 132.493L249.528 201.382C244.296 199.977 239.452 197.399 235.361 193.845L254.065 131.045C259.426 130.323 264.882 130.818 270.026 132.493Z" fill="white"/>
<path d="M281.438 138.726L262.474 202.439C261.272 202.561 260.065 202.622 258.856 202.62C257.406 202.621 255.956 202.534 254.515 202.359L274.724 134.426C277.114 135.606 279.367 137.048 281.438 138.726Z" fill="white"/>
<path opacity="0.8" d="M232.288 174.688C232.085 174.687 231.889 174.613 231.735 174.481C231.581 174.348 231.479 174.164 231.448 173.964C230.221 166.176 231.7 158.203 235.638 151.375C237.866 147.552 240.485 145.257 243.43 144.569C243.542 144.533 243.661 144.521 243.778 144.533C243.895 144.545 244.008 144.581 244.111 144.639C244.214 144.697 244.303 144.775 244.374 144.87C244.444 144.964 244.495 145.072 244.522 145.187C244.549 145.301 244.552 145.421 244.531 145.536C244.51 145.652 244.465 145.762 244.399 145.86C244.333 145.958 244.248 146.041 244.149 146.104C244.049 146.167 243.937 146.209 243.821 146.227C241.354 146.806 239.096 148.834 237.114 152.236C233.373 158.726 231.969 166.303 233.134 173.703C233.152 173.815 233.147 173.928 233.12 174.038C233.093 174.147 233.044 174.25 232.976 174.34C232.909 174.431 232.825 174.507 232.728 174.564C232.63 174.621 232.523 174.658 232.411 174.673L232.288 174.688Z" fill="white"/>
<path d="M282.24 169.417C281.945 169.417 281.657 169.33 281.412 169.166C281.167 169.002 280.976 168.769 280.863 168.496C280.75 168.224 280.72 167.924 280.778 167.635C280.836 167.346 280.977 167.08 281.186 166.871C281.395 166.663 281.66 166.521 281.949 166.463C282.238 166.406 282.538 166.435 282.81 166.548C283.083 166.661 283.316 166.852 283.479 167.098C283.643 167.342 283.73 167.631 283.73 167.926C283.73 168.321 283.573 168.701 283.294 168.981C283.014 169.26 282.635 169.417 282.24 169.417ZM282.24 167.289C282.114 167.289 281.991 167.326 281.886 167.396C281.782 167.466 281.7 167.565 281.652 167.682C281.604 167.799 281.591 167.927 281.616 168.05C281.64 168.174 281.701 168.287 281.79 168.376C281.879 168.465 281.992 168.526 282.115 168.551C282.239 168.575 282.367 168.563 282.484 168.515C282.6 168.466 282.699 168.385 282.77 168.28C282.84 168.175 282.877 168.052 282.877 167.926C282.869 167.762 282.799 167.607 282.681 167.494C282.562 167.381 282.404 167.318 282.24 167.318V167.289Z" fill="#274B5B"/>
<path opacity="0.2" d="M282.241 170.72C281.695 170.72 281.16 170.558 280.706 170.254C280.252 169.95 279.897 169.519 279.688 169.013C279.479 168.508 279.424 167.952 279.531 167.415C279.637 166.879 279.901 166.386 280.287 165.999C280.673 165.613 281.166 165.349 281.702 165.242C282.238 165.135 282.794 165.19 283.299 165.4C283.804 165.609 284.236 165.964 284.54 166.418C284.843 166.873 285.005 167.407 285.005 167.955C285.005 168.688 284.714 169.392 284.196 169.91C283.678 170.429 282.974 170.72 282.241 170.72ZM282.241 166.89C282.031 166.89 281.825 166.953 281.651 167.07C281.476 167.187 281.339 167.353 281.259 167.547C281.178 167.742 281.157 167.956 281.199 168.162C281.239 168.369 281.34 168.559 281.49 168.707C281.638 168.856 281.827 168.957 282.034 168.999C282.241 169.039 282.454 169.018 282.649 168.938C282.843 168.858 283.009 168.721 283.126 168.546C283.243 168.371 283.305 168.165 283.305 167.955C283.305 167.815 283.277 167.677 283.224 167.547C283.171 167.418 283.092 167.301 282.994 167.202C282.895 167.103 282.777 167.025 282.649 166.971C282.52 166.918 282.381 166.89 282.241 166.89Z" fill="#274B5B"/>
<path d="M257.582 207.514C249.594 207.514 241.785 205.144 235.143 200.704C228.501 196.263 223.325 189.951 220.268 182.566C217.211 175.182 216.411 167.055 217.97 159.216C219.528 151.376 223.374 144.175 229.023 138.523C234.671 132.872 241.868 129.022 249.702 127.463C257.537 125.904 265.658 126.704 273.038 129.763C280.417 132.822 286.725 138.002 291.163 144.648C295.602 151.294 297.97 159.107 297.97 167.1C297.958 177.816 293.699 188.088 286.127 195.665C278.556 203.241 268.29 207.503 257.582 207.514ZM257.582 135.621C251.36 135.621 245.277 137.467 240.104 140.926C234.93 144.385 230.898 149.301 228.517 155.054C226.136 160.806 225.513 167.135 226.727 173.242C227.94 179.348 230.937 184.957 235.336 189.36C239.736 193.763 245.342 196.761 251.444 197.976C257.547 199.19 263.872 198.566 269.621 196.184C275.369 193.801 280.283 189.766 283.74 184.589C287.196 179.413 289.041 173.327 289.041 167.1C289.03 158.755 285.711 150.756 279.814 144.856C273.916 138.956 265.921 135.637 257.582 135.628V135.621Z" fill="#274B5B"/>
<path d="M234.791 372.783V310.707C234.764 289.711 242.67 269.482 256.924 254.075C270.916 269.439 278.659 289.486 278.63 310.272V372.703" fill="#ECF2FA"/>
<path d="M259.927 262.379C247.316 277.08 240.385 295.815 240.392 315.188V376.193H235.291V315.188C235.291 294.486 243.21 274.57 257.424 259.527C258.278 260.463 259.112 261.414 259.927 262.379Z" fill="white"/>
<path d="M274.376 313.987V375.339L256.779 375.375C273.153 342.447 267.958 298.08 264.637 275.462C271.029 287.296 274.376 300.535 274.376 313.987Z" fill="#8BBACC"/>
<g opacity="0.4">
<path opacity="0.4" d="M217.664 262.582C220.399 258.151 222.338 254.393 222.635 254.524C222.932 254.654 221.361 258.651 218.583 263.147C215.805 267.643 212.947 270.843 212.722 270.662C212.498 270.481 214.951 267.02 217.664 262.582Z" fill="#426270"/>
<path opacity="0.4" d="M222.001 265.39C223.761 262.394 224.978 259.842 224.719 259.69C224.461 259.539 222.825 261.844 221.066 264.84C219.307 267.835 218.09 270.387 218.348 270.539C218.606 270.691 220.242 268.385 222.001 265.39Z" fill="#426270"/>
<path opacity="0.4" d="M218.743 265.521C222.737 267.136 226.073 268.251 225.978 268.548C225.884 268.844 222.361 268.178 218.323 266.528C214.286 264.877 211.254 262.908 211.399 262.676C211.544 262.444 214.742 263.921 218.743 265.521Z" fill="#426270"/>
<path opacity="0.4" d="M222.521 264.443C226.138 266.144 229.199 267.216 229.112 267.512C229.025 267.809 225.769 267.158 222.065 265.427C218.36 263.697 215.763 261.597 215.929 261.38C216.096 261.163 218.903 262.77 222.521 264.443Z" fill="#426270"/>
</g>
<path d="M248.233 295.785C247.939 295.785 247.65 295.697 247.406 295.534C247.16 295.37 246.969 295.137 246.856 294.864C246.744 294.592 246.714 294.292 246.772 294.003C246.829 293.714 246.971 293.447 247.179 293.239C247.388 293.03 247.654 292.888 247.942 292.831C248.232 292.773 248.531 292.803 248.803 292.916C249.076 293.029 249.309 293.22 249.473 293.465C249.636 293.71 249.724 293.999 249.724 294.294C249.724 294.689 249.567 295.068 249.288 295.349C249.008 295.628 248.628 295.785 248.233 295.785ZM248.233 293.657C248.107 293.657 247.984 293.694 247.88 293.764C247.775 293.834 247.694 293.933 247.645 294.05C247.597 294.166 247.584 294.294 247.609 294.418C247.634 294.541 247.694 294.655 247.783 294.744C247.872 294.833 247.986 294.894 248.109 294.918C248.233 294.943 248.361 294.931 248.477 294.882C248.594 294.834 248.693 294.753 248.763 294.648C248.833 294.543 248.87 294.42 248.87 294.294C248.868 294.126 248.801 293.966 248.681 293.848C248.562 293.73 248.401 293.664 248.233 293.664V293.657Z" fill="#274B5B"/>
<path opacity="0.2" d="M248.235 297.067C247.688 297.067 247.154 296.904 246.699 296.6C246.245 296.296 245.89 295.865 245.681 295.359C245.472 294.854 245.417 294.298 245.524 293.761C245.631 293.225 245.894 292.732 246.28 292.345C246.667 291.959 247.159 291.695 247.696 291.588C248.232 291.482 248.787 291.537 249.293 291.746C249.798 291.955 250.229 292.31 250.533 292.765C250.837 293.219 250.999 293.754 250.999 294.301C250.999 295.034 250.708 295.738 250.189 296.256C249.671 296.776 248.968 297.067 248.235 297.067ZM248.235 293.237C248.025 293.237 247.819 293.299 247.644 293.416C247.469 293.533 247.332 293.699 247.252 293.893C247.172 294.088 247.151 294.302 247.192 294.509C247.233 294.715 247.334 294.905 247.483 295.053C247.631 295.202 247.821 295.304 248.028 295.345C248.234 295.386 248.447 295.364 248.642 295.284C248.836 295.204 249.002 295.067 249.12 294.892C249.236 294.717 249.298 294.512 249.298 294.301C249.3 294.16 249.274 294.02 249.222 293.889C249.17 293.759 249.091 293.639 248.992 293.539C248.893 293.439 248.775 293.359 248.646 293.305C248.515 293.25 248.376 293.222 248.235 293.222V293.237Z" fill="#274B5B"/>
<path d="M248.233 357.897C247.939 357.897 247.65 357.81 247.406 357.646C247.16 357.482 246.969 357.249 246.856 356.976C246.744 356.704 246.714 356.404 246.772 356.115C246.829 355.825 246.971 355.56 247.179 355.351C247.388 355.143 247.654 355.001 247.942 354.943C248.232 354.886 248.531 354.915 248.803 355.028C249.076 355.141 249.309 355.332 249.473 355.577C249.636 355.822 249.724 356.111 249.724 356.406C249.724 356.801 249.567 357.181 249.288 357.461C249.008 357.74 248.628 357.897 248.233 357.897ZM248.233 355.769C248.107 355.769 247.984 355.806 247.88 355.876C247.775 355.946 247.694 356.045 247.645 356.162C247.597 356.279 247.584 356.407 247.609 356.53C247.634 356.654 247.694 356.767 247.783 356.856C247.872 356.945 247.986 357.006 248.109 357.031C248.233 357.055 248.361 357.043 248.477 356.995C248.594 356.946 248.693 356.865 248.763 356.76C248.833 356.655 248.87 356.532 248.87 356.406C248.87 356.237 248.803 356.075 248.683 355.956C248.564 355.836 248.403 355.769 248.233 355.769Z" fill="#274B5B"/>
<path opacity="0.2" d="M248.235 359.172C247.688 359.172 247.154 359.009 246.699 358.705C246.245 358.401 245.89 357.97 245.681 357.464C245.472 356.959 245.417 356.403 245.524 355.866C245.631 355.33 245.894 354.837 246.28 354.45C246.667 354.064 247.159 353.8 247.696 353.693C248.232 353.587 248.787 353.642 249.293 353.851C249.798 354.06 250.229 354.414 250.533 354.87C250.837 355.324 250.999 355.858 250.999 356.406C250.999 357.139 250.708 357.843 250.189 358.361C249.671 358.88 248.968 359.172 248.235 359.172ZM248.235 355.342C248.025 355.342 247.819 355.404 247.644 355.521C247.469 355.638 247.332 355.804 247.252 355.998C247.172 356.193 247.151 356.407 247.192 356.614C247.233 356.82 247.334 357.01 247.483 357.158C247.631 357.307 247.821 357.409 248.028 357.45C248.234 357.49 248.447 357.469 248.642 357.389C248.836 357.309 249.002 357.172 249.12 356.997C249.236 356.822 249.298 356.617 249.298 356.406C249.298 356.123 249.186 355.853 248.987 355.654C248.787 355.454 248.517 355.342 248.235 355.342Z" fill="#274B5B"/>
<path d="M248.233 326.845C247.939 326.845 247.65 326.757 247.406 326.593C247.16 326.43 246.969 326.197 246.856 325.924C246.744 325.651 246.714 325.352 246.772 325.062C246.829 324.773 246.971 324.508 247.179 324.298C247.388 324.09 247.654 323.948 247.942 323.891C248.232 323.833 248.531 323.862 248.803 323.975C249.076 324.088 249.309 324.279 249.473 324.525C249.636 324.77 249.724 325.059 249.724 325.353C249.724 325.749 249.567 326.128 249.288 326.408C249.008 326.688 248.628 326.845 248.233 326.845ZM248.233 324.716C248.107 324.716 247.984 324.754 247.88 324.823C247.775 324.893 247.694 324.993 247.645 325.109C247.597 325.226 247.584 325.354 247.609 325.478C247.634 325.601 247.694 325.714 247.783 325.804C247.872 325.893 247.986 325.953 248.109 325.978C248.233 326.003 248.361 325.99 248.477 325.942C248.594 325.893 248.693 325.812 248.763 325.707C248.833 325.602 248.87 325.479 248.87 325.353C248.87 325.185 248.803 325.022 248.683 324.903C248.564 324.783 248.403 324.716 248.233 324.716Z" fill="#274B5B"/>
<path opacity="0.2" d="M248.235 328.119C247.688 328.119 247.154 327.957 246.699 327.653C246.245 327.35 245.89 326.917 245.681 326.412C245.472 325.907 245.417 325.351 245.524 324.814C245.631 324.278 245.894 323.785 246.28 323.398C246.667 323.011 247.159 322.748 247.696 322.641C248.232 322.534 248.787 322.589 249.293 322.799C249.798 323.008 250.229 323.363 250.533 323.817C250.837 324.272 250.999 324.807 250.999 325.354C250.999 326.087 250.708 326.791 250.189 327.309C249.671 327.828 248.968 328.119 248.235 328.119ZM248.235 324.289C248.025 324.289 247.819 324.352 247.644 324.469C247.469 324.585 247.332 324.752 247.252 324.947C247.172 325.141 247.151 325.355 247.192 325.561C247.233 325.768 247.334 325.957 247.483 326.107C247.631 326.255 247.821 326.356 248.028 326.398C248.234 326.439 248.447 326.417 248.642 326.337C248.836 326.256 249.002 326.12 249.12 325.945C249.236 325.77 249.298 325.564 249.298 325.354C249.298 325.071 249.186 324.8 248.987 324.601C248.787 324.402 248.517 324.289 248.235 324.289Z" fill="#274B5B"/>
<path d="M261.837 295.785C261.541 295.785 261.253 295.697 261.008 295.534C260.764 295.37 260.573 295.137 260.46 294.864C260.347 294.592 260.317 294.292 260.374 294.003C260.432 293.714 260.574 293.447 260.782 293.239C260.991 293.03 261.256 292.888 261.546 292.831C261.835 292.773 262.135 292.803 262.407 292.916C262.68 293.029 262.912 293.22 263.076 293.465C263.24 293.71 263.327 293.999 263.327 294.294C263.327 294.689 263.17 295.068 262.891 295.349C262.611 295.628 262.232 295.785 261.837 295.785ZM261.837 293.657C261.711 293.657 261.588 293.694 261.483 293.764C261.378 293.834 261.296 293.933 261.248 294.05C261.2 294.166 261.188 294.294 261.212 294.418C261.237 294.541 261.298 294.655 261.387 294.744C261.476 294.833 261.589 294.894 261.712 294.918C261.836 294.943 261.964 294.931 262.08 294.882C262.196 294.834 262.296 294.753 262.366 294.648C262.436 294.543 262.473 294.42 262.473 294.294C262.471 294.126 262.403 293.966 262.284 293.848C262.165 293.73 262.004 293.664 261.837 293.664V293.657Z" fill="#274B5B"/>
<path opacity="0.2" d="M261.838 297.067C261.292 297.067 260.757 296.904 260.303 296.6C259.848 296.296 259.494 295.865 259.285 295.359C259.076 294.854 259.021 294.298 259.127 293.761C259.234 293.225 259.498 292.732 259.884 292.345C260.27 291.959 260.763 291.695 261.299 291.588C261.835 291.482 262.391 291.537 262.896 291.746C263.401 291.955 263.833 292.31 264.136 292.765C264.44 293.219 264.602 293.754 264.602 294.301C264.602 295.034 264.311 295.738 263.793 296.256C263.274 296.776 262.571 297.067 261.838 297.067ZM261.838 293.237C261.628 293.237 261.422 293.299 261.247 293.416C261.073 293.533 260.936 293.699 260.856 293.893C260.775 294.088 260.754 294.302 260.795 294.509C260.836 294.715 260.937 294.905 261.086 295.053C261.235 295.202 261.424 295.304 261.631 295.345C261.837 295.386 262.051 295.364 262.246 295.284C262.439 295.204 262.606 295.067 262.722 294.892C262.84 294.717 262.902 294.512 262.902 294.301C262.904 294.16 262.878 294.02 262.825 293.889C262.772 293.759 262.694 293.639 262.596 293.539C262.497 293.439 262.379 293.359 262.248 293.305C262.119 293.25 261.979 293.222 261.838 293.222V293.237Z" fill="#274B5B"/>
<path d="M261.837 357.897C261.541 357.897 261.253 357.81 261.008 357.646C260.764 357.482 260.573 357.249 260.46 356.976C260.347 356.704 260.317 356.404 260.374 356.115C260.432 355.825 260.574 355.56 260.782 355.351C260.991 355.143 261.256 355.001 261.546 354.943C261.835 354.886 262.135 354.915 262.407 355.028C262.68 355.141 262.912 355.332 263.076 355.577C263.24 355.822 263.327 356.111 263.327 356.406C263.327 356.801 263.17 357.181 262.891 357.461C262.611 357.74 262.232 357.897 261.837 357.897ZM261.837 355.769C261.711 355.769 261.588 355.806 261.483 355.876C261.378 355.946 261.296 356.045 261.248 356.162C261.2 356.279 261.188 356.407 261.212 356.53C261.237 356.654 261.298 356.767 261.387 356.856C261.476 356.945 261.589 357.006 261.712 357.031C261.836 357.055 261.964 357.043 262.08 356.995C262.196 356.946 262.296 356.865 262.366 356.76C262.436 356.655 262.473 356.532 262.473 356.406C262.473 356.237 262.406 356.075 262.287 355.956C262.167 355.836 262.005 355.769 261.837 355.769Z" fill="#274B5B"/>
<path opacity="0.2" d="M261.838 359.172C261.292 359.172 260.757 359.009 260.303 358.705C259.848 358.401 259.494 357.97 259.285 357.464C259.076 356.959 259.021 356.403 259.127 355.866C259.234 355.33 259.498 354.837 259.884 354.45C260.27 354.064 260.763 353.8 261.299 353.693C261.835 353.587 262.391 353.642 262.896 353.851C263.401 354.06 263.833 354.414 264.136 354.87C264.44 355.324 264.602 355.858 264.602 356.406C264.602 357.139 264.311 357.843 263.793 358.361C263.274 358.88 262.571 359.172 261.838 359.172ZM261.838 355.342C261.628 355.342 261.422 355.404 261.247 355.521C261.073 355.638 260.936 355.804 260.856 355.998C260.775 356.193 260.754 356.407 260.795 356.614C260.836 356.82 260.937 357.01 261.086 357.158C261.235 357.307 261.424 357.409 261.631 357.45C261.837 357.49 262.051 357.469 262.246 357.389C262.439 357.309 262.606 357.172 262.722 356.997C262.84 356.822 262.902 356.617 262.902 356.406C262.902 356.266 262.874 356.128 262.821 355.998C262.767 355.869 262.689 355.752 262.591 355.654C262.492 355.554 262.374 355.476 262.246 355.423C262.116 355.369 261.978 355.342 261.838 355.342Z" fill="#274B5B"/>
<path d="M261.837 326.845C261.541 326.845 261.253 326.757 261.008 326.593C260.764 326.43 260.573 326.197 260.46 325.924C260.347 325.651 260.317 325.352 260.374 325.062C260.432 324.773 260.574 324.508 260.782 324.298C260.991 324.09 261.256 323.948 261.546 323.891C261.835 323.833 262.135 323.862 262.407 323.975C262.68 324.088 262.912 324.279 263.076 324.525C263.24 324.77 263.327 325.059 263.327 325.353C263.327 325.749 263.17 326.128 262.891 326.408C262.611 326.688 262.232 326.845 261.837 326.845ZM261.837 324.716C261.711 324.716 261.588 324.754 261.483 324.823C261.378 324.893 261.296 324.993 261.248 325.109C261.2 325.226 261.188 325.354 261.212 325.478C261.237 325.601 261.298 325.714 261.387 325.804C261.476 325.893 261.589 325.953 261.712 325.978C261.836 326.003 261.964 325.99 262.08 325.942C262.196 325.893 262.296 325.812 262.366 325.707C262.436 325.602 262.473 325.479 262.473 325.353C262.473 325.185 262.406 325.022 262.287 324.903C262.167 324.783 262.005 324.716 261.837 324.716Z" fill="#274B5B"/>
<path opacity="0.2" d="M261.838 328.119C261.292 328.119 260.757 327.957 260.303 327.653C259.848 327.35 259.494 326.917 259.285 326.412C259.076 325.907 259.021 325.351 259.127 324.814C259.234 324.278 259.498 323.785 259.884 323.398C260.27 323.011 260.763 322.748 261.299 322.641C261.835 322.534 262.391 322.589 262.896 322.799C263.401 323.008 263.833 323.363 264.136 323.817C264.44 324.272 264.602 324.807 264.602 325.354C264.602 326.087 264.311 326.791 263.793 327.309C263.274 327.828 262.571 328.119 261.838 328.119ZM261.838 324.289C261.628 324.289 261.422 324.352 261.247 324.469C261.073 324.585 260.936 324.752 260.856 324.947C260.775 325.141 260.754 325.355 260.795 325.561C260.836 325.768 260.937 325.957 261.086 326.107C261.235 326.255 261.424 326.356 261.631 326.398C261.837 326.439 262.051 326.417 262.246 326.337C262.439 326.256 262.606 326.12 262.722 325.945C262.84 325.77 262.902 325.564 262.902 325.354C262.902 325.214 262.874 325.076 262.821 324.947C262.767 324.817 262.689 324.7 262.591 324.601C262.492 324.502 262.374 324.424 262.246 324.37C262.116 324.317 261.978 324.289 261.838 324.289Z" fill="#274B5B"/>
<path d="M256.1 258.354H254.399V373.637H256.1V258.354Z" fill="#274B5B"/>
<path opacity="0.2" d="M254.82 262.604H253.119V372.356H254.82V262.604Z" fill="#274B5B"/>
<path opacity="0.8" d="M258.22 262.604H256.519V371.929H258.22V262.604Z" fill="white"/>
<path d="M282.031 399.368H228.04C222.121 399.362 216.447 397.007 212.262 392.82C208.078 388.633 205.724 382.955 205.719 377.033V373.84H304.352V377.033C304.346 382.955 301.993 388.633 297.808 392.82C293.623 397.007 287.949 399.362 282.031 399.368ZM212.419 380.226C213.157 383.827 215.115 387.062 217.961 389.388C220.806 391.713 224.366 392.985 228.04 392.99H282.031C285.704 392.985 289.264 391.713 292.11 389.388C294.955 387.062 296.913 383.827 297.652 380.226H212.419Z" fill="#274B5B"/>
<path opacity="0.15" d="M300.387 115.059C303.354 114.344 306.483 114.837 309.086 116.429C311.69 118.022 313.555 120.584 314.272 123.551L317.007 134.889C317.722 137.858 317.229 140.989 315.637 143.594C314.046 146.199 311.486 148.066 308.52 148.783C305.553 149.498 302.425 149.005 299.821 147.413C297.217 145.82 295.352 143.258 294.635 140.29L291.9 128.953C291.186 125.984 291.678 122.853 293.27 120.248C294.861 117.643 297.421 115.776 300.387 115.059Z" fill="white"/>
<path opacity="0.15" d="M290.17 110.049C292.698 108.336 295.801 107.699 298.798 108.276C301.796 108.853 304.441 110.597 306.153 113.126C307.864 115.655 308.502 118.761 307.925 121.759C307.348 124.758 305.605 127.406 303.078 129.119C300.551 130.831 297.447 131.469 294.45 130.892C291.453 130.315 288.807 128.57 287.095 126.042C285.384 123.513 284.747 120.408 285.324 117.408C285.9 114.409 287.643 111.762 290.17 110.049Z" fill="white"/>
<g opacity="0.4">
<path opacity="0.4" d="M299.716 197.494C302.451 193.063 304.39 189.306 304.686 189.436C304.983 189.566 303.413 193.563 300.635 198.059C297.856 202.555 294.998 205.755 294.774 205.574C294.55 205.393 297.002 201.939 299.716 197.494Z" fill="#426270"/>
<path opacity="0.4" d="M304.05 200.309C305.809 197.313 307.026 194.76 306.768 194.609C306.51 194.457 304.874 196.762 303.115 199.758C301.355 202.754 300.138 205.306 300.397 205.458C300.656 205.61 302.291 203.304 304.05 200.309Z" fill="#426270"/>
<path opacity="0.4" d="M300.772 200.441C304.766 202.055 308.102 203.17 308.007 203.467C307.913 203.764 304.39 203.098 300.352 201.447C296.315 199.796 293.283 197.827 293.428 197.595C293.573 197.364 296.793 198.834 300.772 200.441Z" fill="#426270"/>
<path opacity="0.4" d="M304.569 199.355C308.187 201.056 311.248 202.128 311.161 202.424C311.074 202.721 307.818 202.07 304.113 200.339C300.409 198.609 297.811 196.509 297.978 196.292C298.144 196.075 300.952 197.653 304.569 199.355Z" fill="#426270"/>
</g>
<g opacity="0.4">
<path opacity="0.4" d="M265.282 66.4711C268.017 62.0402 269.956 58.2826 270.253 58.413C270.55 58.5433 268.98 62.5398 266.201 67.0359C263.423 71.5319 260.565 74.732 260.34 74.551C260.116 74.37 262.562 70.9165 265.282 66.4711Z" fill="#426270"/>
<path opacity="0.4" d="M269.611 69.292C271.371 66.2962 272.587 63.7444 272.329 63.5926C272.07 63.4406 270.434 65.746 268.676 68.7418C266.916 71.7376 265.7 74.289 265.958 74.4411C266.216 74.5931 267.852 72.2878 269.611 69.292Z" fill="#426270"/>
<path opacity="0.4" d="M266.352 69.4179C270.346 71.0324 273.682 72.1474 273.588 72.4442C273.494 72.741 269.97 72.075 265.933 70.4242C261.895 68.7735 258.864 66.8042 259.008 66.5725C259.153 66.3408 262.358 67.8106 266.352 69.4179Z" fill="#426270"/>
<path opacity="0.4" d="M270.136 68.3318C273.754 70.0332 276.815 71.1048 276.728 71.4016C276.641 71.6985 273.385 71.0468 269.681 69.3165C265.976 67.5861 263.378 65.4865 263.545 65.2693C263.711 65.0521 266.519 66.6594 270.136 68.3318Z" fill="#426270"/>
</g>
<path d="M305.199 86.707H198.918V88.8356H305.199V86.707Z" fill="#8BBACC"/>
<path d="M314.642 94.4971H195.908L197.355 88.1187H313.918L314.642 94.4971Z" fill="#274B5B"/>
<path d="M298.855 377.677H210.503C204.982 377.677 200.033 375.223 197.587 371.27C188.232 356.066 166.475 309.802 166.475 208.152C166.475 108.529 218.925 35.585 241.478 8.84752C243.1 6.92294 245.123 5.37607 247.405 4.31496C249.687 3.25386 252.173 2.7041 254.689 2.7041C257.205 2.7041 259.691 3.25386 261.973 4.31496C264.255 5.37607 266.278 6.92294 267.901 8.84752C290.447 35.585 342.904 108.529 342.882 208.152C342.882 309.78 321.125 356.08 311.77 371.27C309.361 375.216 304.39 377.677 298.855 377.677ZM254.668 9.08644C252.098 9.0847 249.611 9.9955 247.649 11.6567C247.179 12.0536 246.743 12.4896 246.347 12.9599C224.25 39.1616 172.849 110.628 172.849 208.152C172.849 251.744 176.887 289.718 184.846 321.024C191.408 346.828 199.042 361.481 203.014 367.918C204.258 369.938 207.276 371.292 210.503 371.292H298.855C302.103 371.292 305.106 369.938 306.336 367.925C310.308 361.474 317.913 346.813 324.512 321.017C332.471 289.711 336.508 251.737 336.508 208.144C336.508 110.628 285.136 39.1616 263.025 12.9599C262.103 11.862 260.973 10.9577 259.7 10.2991C258.427 9.64052 257.036 9.24065 255.608 9.12264C255.294 9.09853 254.981 9.08644 254.668 9.08644Z" fill="#274B5B"/>
<path d="M236.275 373.717H229.901V312.712C229.863 291.186 238.099 270.469 252.902 254.85L255.239 252.381L257.555 254.864C272.094 270.436 280.17 290.959 280.144 312.271V373.623H273.769V312.285C273.79 293.785 267.2 275.886 255.189 261.822C242.951 275.943 236.229 294.015 236.261 312.705L236.275 373.717Z" fill="#274B5B"/>
<path d="M360.462 339.175C360.167 339.175 359.879 339.087 359.634 338.923C359.389 338.759 359.198 338.527 359.085 338.254C358.972 337.982 358.943 337.682 359 337.392C359.058 337.103 359.2 336.837 359.408 336.628C359.617 336.42 359.882 336.278 360.172 336.221C360.46 336.163 360.76 336.193 361.033 336.305C361.305 336.418 361.538 336.61 361.701 336.855C361.865 337.1 361.952 337.389 361.952 337.683C361.952 338.079 361.795 338.458 361.516 338.738C361.237 339.018 360.858 339.175 360.462 339.175ZM360.462 337.046C360.336 337.046 360.213 337.084 360.109 337.153C360.004 337.224 359.922 337.323 359.874 337.439C359.826 337.556 359.813 337.684 359.837 337.808C359.862 337.931 359.923 338.045 360.012 338.134C360.101 338.223 360.214 338.283 360.338 338.308C360.462 338.333 360.589 338.32 360.706 338.272C360.822 338.223 360.921 338.142 360.991 338.037C361.062 337.932 361.099 337.809 361.099 337.683C361.097 337.515 361.029 337.355 360.91 337.237C360.79 337.119 360.63 337.053 360.462 337.053V337.046Z" fill="#274B5B"/>
<path opacity="0.2" d="M360.464 340.456C359.917 340.456 359.383 340.294 358.928 339.99C358.473 339.686 358.12 339.254 357.91 338.749C357.701 338.244 357.646 337.688 357.753 337.151C357.859 336.615 358.122 336.122 358.51 335.735C358.896 335.348 359.388 335.085 359.924 334.978C360.46 334.871 361.017 334.926 361.522 335.136C362.027 335.345 362.458 335.7 362.762 336.154C363.066 336.609 363.228 337.143 363.228 337.691C363.228 338.424 362.936 339.128 362.418 339.646C361.899 340.165 361.197 340.456 360.464 340.456ZM360.464 336.626C360.253 336.626 360.048 336.689 359.873 336.806C359.698 336.922 359.562 337.089 359.481 337.283C359.4 337.478 359.379 337.692 359.421 337.898C359.462 338.105 359.563 338.294 359.711 338.443C359.86 338.592 360.05 338.693 360.256 338.735C360.462 338.775 360.677 338.754 360.871 338.674C361.065 338.593 361.231 338.457 361.348 338.282C361.465 338.107 361.527 337.901 361.527 337.691C361.527 337.408 361.415 337.137 361.216 336.938C361.016 336.738 360.746 336.626 360.464 336.626Z" fill="#274B5B"/>
</g>
<defs>
<linearGradient id="paint0_linear_260_532" x1="0.499549" y1="198.595" x2="547.42" y2="198.595" gradientUnits="userSpaceOnUse">
<stop stop-color="#3EE3EA"/>
<stop offset="0.994792" stop-color="#C6EBFD"/>
</linearGradient>
<clipPath id="clip0_260_532">
<rect width="547" height="564" fill="white" transform="translate(0.5)"/>
</clipPath>
</defs>
</svg>
