<svg width="33" height="33" viewBox="0 0 33 33" fill="none" xmlns="http://www.w3.org/2000/svg">
<g clip-path="url(#clip0_266_31)">
<path fill-rule="evenodd" clip-rule="evenodd" d="M32.9258 1.41448C33.0009 1.22707 33.0192 1.02177 32.9786 0.824022C32.9381 0.626277 32.8404 0.444785 32.6976 0.302047C32.5549 0.159308 32.3734 0.0616003 32.1757 0.0210362C31.9779 -0.0195279 31.7726 -0.00116447 31.5852 0.07385L1.58202 12.0755H1.57996L0.647707 12.4468C0.471137 12.5172 0.31747 12.6351 0.203683 12.7874C0.0898948 12.9397 0.0204137 13.1204 0.0029143 13.3097C-0.0145851 13.499 0.0205784 13.6895 0.10452 13.86C0.188462 14.0306 0.317916 14.1746 0.478582 14.2762L1.32421 14.8125L1.32627 14.8166L11.6285 21.3712L18.1831 31.6734L18.1872 31.6775L18.7235 32.5232C18.8254 32.6832 18.9695 32.812 19.1399 32.8954C19.3104 32.9789 19.5005 33.0136 19.6895 32.9959C19.8784 32.9782 20.0588 32.9087 20.2107 32.7951C20.3627 32.6815 20.4804 32.5282 20.5508 32.352L32.9258 1.41448ZM29.1453 5.3126L30.1167 2.88297L27.6871 3.85441L12.2307 19.3108L12.9278 19.7542C13.0558 19.8355 13.1642 19.9439 13.2455 20.0719L13.6889 20.769L29.1453 5.3126Z" fill="#FFFDFD"/>
</g>
<defs>
<clipPath id="clip0_266_31">
<rect width="33" height="33" fill="white"/>
</clipPath>
</defs>
</svg>
