<svg width="39" height="40" viewBox="0 0 39 40" fill="none" xmlns="http://www.w3.org/2000/svg">
<g clip-path="url(#clip0_262_1085)">
<path d="M33.3755 12.8469C33.1242 12.7961 32.9357 12.7706 32.81 12.7706C31.8801 12.7706 31.0758 13.0885 30.3972 13.7244C28.864 13.0377 27.4313 12.4781 26.0992 12.0458C23.9126 11.3336 21.6254 10.7486 19.2376 10.2908C19.0114 9.68043 18.6721 9.17175 18.2197 8.76481C18.8481 5.76363 19.69 3.04222 20.7457 0.600586C23.9126 0.829489 26.8218 1.75782 29.4735 3.38558C32.1251 5.01334 34.2678 7.14977 35.9015 9.79488C34.9715 10.8122 34.1296 11.8296 33.3755 12.8469ZM15.8822 7.88735C15.2288 7.88735 14.613 8.06538 14.0349 8.42146C11.999 6.89543 9.9506 5.59831 7.88961 4.5301C11.0062 2.13933 14.4999 0.829489 18.3705 0.600586C17.3903 2.81332 16.5986 5.24224 15.9953 7.88735H15.8822ZM2.79996 10.2527C3.65452 8.80296 4.73529 7.42954 6.04226 6.13242C7.75137 7.0226 9.52332 8.11625 11.3581 9.41337C8.11582 9.33707 5.2631 9.61684 2.79996 10.2527ZM12.2629 11.7787C12.3132 12.5672 12.5834 13.2602 13.0735 13.8579C13.5636 14.4556 14.1731 14.8562 14.902 15.0597C14.7512 16.84 14.6758 18.5314 14.6758 20.1337C14.6758 21.2528 14.7135 22.5372 14.7889 23.9869C14.236 24.1649 13.7458 24.4701 13.3186 24.9025C11.9613 24.3684 10.6544 23.758 9.39765 23.0713C9.67413 22.5117 9.81236 21.9395 9.81236 21.3545C9.81236 20.3372 9.46049 19.4724 8.75673 18.7603C8.05298 18.0481 7.19842 17.692 6.19306 17.692C5.08716 17.692 4.16977 18.1244 3.44088 18.9892C2.38525 18.0227 1.44273 17.0181 0.613302 15.9753C0.839508 14.8816 1.17882 13.8007 1.63123 12.7325C4.69758 11.8677 8.24149 11.5498 12.2629 11.7787ZM2.61146 21.6597C2.68686 22.6008 3.07015 23.3956 3.76134 24.0441C4.45253 24.6927 5.2631 25.017 6.19306 25.017C6.46953 25.017 6.77114 24.9661 7.09789 24.8644C8.70647 25.8054 10.4281 26.6193 12.2629 27.306V27.4586C12.2629 28.4505 12.596 29.2962 13.262 29.9956C13.9281 30.695 14.7512 31.0702 15.7314 31.1211C16.3598 34.224 17.2395 37.0598 18.3705 39.6286C15.8571 39.476 13.4819 38.8593 11.245 37.7783C9.00807 36.6974 7.07904 35.2922 5.45789 33.5627C3.83674 31.8332 2.54862 29.7985 1.59353 27.4586C0.638436 25.1187 0.160889 22.6771 0.160889 20.1337C0.160889 20.1083 0.173456 19.7649 0.19859 19.1036C0.902343 19.9938 1.70663 20.8458 2.61146 21.6597ZM19.0491 29.1754C20.8588 29.506 22.681 29.7222 24.5158 29.8239C24.6917 30.3326 24.9682 30.8031 25.3452 31.2355C24.7671 33.906 24.4152 36.5003 24.2896 39.0182C23.0077 39.3489 21.8264 39.5523 20.7457 39.6286C19.5644 36.9072 18.647 33.8297 17.9935 30.3962C18.4459 30.091 18.7978 29.684 19.0491 29.1754ZM30.7365 31.0066C31.0632 30.5997 31.2894 30.1673 31.4151 29.7095C33.2499 29.5569 35.0218 29.3153 36.7309 28.9846C35.5245 31.3754 33.8657 33.4482 31.7544 35.2032C31.5282 33.8806 31.1889 32.4818 30.7365 31.0066ZM24.5912 27.3823C22.8318 27.2806 21.0976 27.0517 19.3884 26.6956C19.112 25.4239 18.3956 24.5464 17.2395 24.0632C17.1389 22.5626 17.0887 21.2528 17.0887 20.1337C17.0887 18.4551 17.1641 16.7129 17.3149 14.9071C17.3651 14.9071 17.428 14.8816 17.5034 14.8308C17.5788 14.7799 17.6291 14.7545 17.6542 14.7545C18.6344 15.7209 19.489 16.6111 20.2179 17.425C22.4045 19.8666 24.2644 22.6389 25.7976 25.7418C25.2447 26.1742 24.8425 26.721 24.5912 27.3823ZM27.9466 32.3419C27.9968 32.3419 28.1351 32.3292 28.3613 32.3037C28.7886 33.8552 29.1027 35.3939 29.3038 36.9199C28.5749 37.3523 27.6952 37.7847 26.6647 38.2171C26.8407 36.2332 27.1423 34.2621 27.5696 32.3037C27.7706 32.3292 27.8963 32.3419 27.9466 32.3419ZM27.7581 23.2239C27.7329 23.2748 27.7015 23.3511 27.6638 23.4528C27.6261 23.5545 27.5947 23.6308 27.5696 23.6817C25.9861 20.7822 24.1262 18.1499 21.9898 15.7845C21.2107 14.8943 20.2807 13.9279 19.1999 12.8851C19.2251 12.8851 19.2439 12.866 19.2565 12.8278L19.2753 12.7706C21.3866 13.203 23.4099 13.7371 25.3452 14.3729C26.5265 14.7545 27.8209 15.2631 29.2284 15.899C29.1781 16.1533 29.153 16.3441 29.153 16.4712C29.153 17.2342 29.3792 17.9337 29.8316 18.5695C29.0022 20.1718 28.311 21.7233 27.7581 23.2239ZM29.53 25.4366C29.8316 24.5464 29.9824 24.0886 29.9824 24.0632C30.4851 22.7915 31.1135 21.4308 31.8675 19.9811C32.1942 20.0828 32.5084 20.1337 32.81 20.1337C33.6646 20.1337 34.4312 19.8412 35.1098 19.2562C36.3414 20.121 37.5478 21.0875 38.7291 22.1557C38.5783 23.6054 38.2767 25.0042 37.8243 26.3522C35.7633 26.7846 33.5892 27.0898 31.302 27.2678C30.9752 26.454 30.3846 25.8436 29.53 25.4366ZM36.4293 16.4331C36.4293 15.5938 36.1528 14.8308 35.5999 14.144C36.1277 13.4573 36.6555 12.8342 37.1833 12.2747C38.0882 14.3602 38.616 16.5094 38.7668 18.7221C37.9374 18.0863 37.1331 17.514 36.3539 17.0053C36.4042 16.7764 36.4293 16.5857 36.4293 16.4331Z" fill="black"/>
</g>
<defs>
<clipPath id="clip0_262_1085">
<rect width="38.6059" height="39.028" fill="white" transform="translate(0.160889 0.600586)"/>
</clipPath>
</defs>
</svg>
